<svg width="1440" height="512" viewBox="0 0 1440 512" fill="none" xmlns="http://www.w3.org/2000/svg">
<g clip-path="url(#clip0)">
<rect width="1440" height="512" fill="white"/>
<rect y="-3.05176e-05" width="1440" height="1024" fill="url(#paint0_linear)"/>
<path d="M-51.8151 1023.31L-308 767.13L790.059 -330.929L1046.24 -74.7446L-51.8151 1023.31Z" fill="url(#paint1_linear)"/>
<path d="M625.185 1380.24L369 1124.06L1467.06 26L1723.24 282.185L625.185 1380.24Z" fill="url(#paint2_linear)"/>
<path d="M408.812 435.285C374.421 469.676 318.662 469.676 284.271 435.285V435.285C249.879 400.894 249.879 345.135 284.271 310.744L720.014 -125L844.556 -0.458635L408.812 435.285Z" fill="url(#paint3_linear)"/>
<rect x="917.536" y="185.668" width="5" height="300" transform="rotate(-135 917.536 185.668)" fill="url(#paint4_linear)"/>
<path d="M719.541 1152.9L595 1028.36L1108.08 515.271C1142.48 480.88 1198.23 480.88 1232.63 515.271V515.271C1267.02 549.662 1267.02 605.421 1232.63 639.812L719.541 1152.9Z" fill="url(#paint5_linear)"/>
<rect x="268.132" y="38" width="5" height="300" transform="rotate(45 268.132 38)" fill="url(#paint6_linear)"/>
<path d="M620.791 255.312C620.791 245.328 622.951 236.448 627.271 228.672C631.591 220.8 637.591 214.704 645.271 210.384C653.047 205.968 661.831 203.76 671.623 203.76C683.623 203.76 693.895 206.928 702.439 213.264C710.983 219.6 716.695 228.24 719.575 239.184H692.503C690.487 234.96 687.607 231.744 683.863 229.536C680.215 227.328 676.039 226.224 671.335 226.224C663.751 226.224 657.607 228.864 652.903 234.144C648.199 239.424 645.847 246.48 645.847 255.312C645.847 264.144 648.199 271.2 652.903 276.48C657.607 281.76 663.751 284.4 671.335 284.4C676.039 284.4 680.215 283.296 683.863 281.088C687.607 278.88 690.487 275.664 692.503 271.44H719.575C716.695 282.384 710.983 291.024 702.439 297.36C693.895 303.6 683.623 306.72 671.623 306.72C661.831 306.72 653.047 304.56 645.271 300.24C637.591 295.824 631.591 289.728 627.271 281.952C622.951 274.176 620.791 265.296 620.791 255.312ZM782.463 307.008C772.959 307.008 764.223 304.8 756.255 300.384C748.383 295.968 742.095 289.824 737.391 281.952C732.783 273.984 730.479 265.056 730.479 255.168C730.479 245.28 732.783 236.4 737.391 228.528C742.095 220.656 748.383 214.512 756.255 210.096C764.223 205.68 772.959 203.472 782.463 203.472C791.967 203.472 800.655 205.68 808.527 210.096C816.495 214.512 822.735 220.656 827.247 228.528C831.855 236.4 834.159 245.28 834.159 255.168C834.159 265.056 831.855 273.984 827.247 281.952C822.639 289.824 816.399 295.968 808.527 300.384C800.655 304.8 791.967 307.008 782.463 307.008ZM782.463 284.544C790.527 284.544 796.959 281.856 801.759 276.48C806.655 271.104 809.103 264 809.103 255.168C809.103 246.24 806.655 239.136 801.759 233.856C796.959 228.48 790.527 225.792 782.463 225.792C774.303 225.792 767.775 228.432 762.879 233.712C758.079 238.992 755.679 246.144 755.679 255.168C755.679 264.096 758.079 271.248 762.879 276.624C767.775 281.904 774.303 284.544 782.463 284.544ZM924.898 237.456C924.898 243.312 923.554 248.688 920.866 253.584C918.178 258.384 914.05 262.272 908.482 265.248C902.914 268.224 896.002 269.712 887.746 269.712H872.482V306H847.858V204.912H887.746C895.81 204.912 902.626 206.304 908.194 209.088C913.762 211.872 917.938 215.712 920.722 220.608C923.506 225.504 924.898 231.12 924.898 237.456ZM885.874 250.128C890.578 250.128 894.082 249.024 896.386 246.816C898.69 244.608 899.842 241.488 899.842 237.456C899.842 233.424 898.69 230.304 896.386 228.096C894.082 225.888 890.578 224.784 885.874 224.784H872.482V250.128H885.874ZM1000.65 288.144H962.917L956.869 306H931.093L967.669 204.912H996.181L1032.76 306H1006.69L1000.65 288.144ZM994.309 269.136L981.781 232.128L969.397 269.136H994.309Z" fill="white"/>
<path d="M578.5 196H546V183.5C546 179.344 542.656 176 538.5 176H453.5C449.344 176 446 179.344 446 183.5V196H413.5C409.344 196 406 199.344 406 203.5V221C406 232.156 413.031 243.625 425.344 252.469C435.188 259.562 447.156 264.062 459.719 265.5C469.531 281.781 481 288.5 481 288.5V311H466C454.969 311 446 317.469 446 328.5V332.25C446 334.312 447.688 336 449.75 336H542.25C544.312 336 546 334.312 546 332.25V328.5C546 317.469 537.031 311 526 311H511V288.5C511 288.5 522.469 281.781 532.281 265.5C544.875 264.062 556.844 259.562 566.656 252.469C578.937 243.625 586 232.156 586 221V203.5C586 199.344 582.656 196 578.5 196ZM437.031 236.25C429.406 230.75 426 224.625 426 221V216H446.062C446.375 226.187 447.875 235.125 450.062 242.937C445.344 241.312 440.938 239.063 437.031 236.25V236.25ZM566 221C566 226.031 560.469 232.281 554.969 236.25C551.063 239.063 546.625 241.312 541.906 242.937C544.094 235.125 545.594 226.187 545.906 216H566V221Z" fill="white"/>
</g>
<defs>
<linearGradient id="paint0_linear" x1="1440" y1="-9.08673e-05" x2="-9.48376e-05" y2="1024" gradientUnits="userSpaceOnUse">
<stop offset="0.109375" stop-color="#38D9C0"/>
<stop offset="0.90625" stop-color="#5F3DC4"/>
</linearGradient>
<linearGradient id="paint1_linear" x1="-179.908" y1="895.222" x2="918.152" y2="-202.837" gradientUnits="userSpaceOnUse">
<stop stop-color="#5F3DC4"/>
<stop offset="1" stop-color="#38D9C0"/>
</linearGradient>
<linearGradient id="paint2_linear" x1="497.092" y1="1252.15" x2="1595.15" y2="154.092" gradientUnits="userSpaceOnUse">
<stop stop-color="#5F3DC4"/>
<stop offset="1" stop-color="#38D9C0"/>
</linearGradient>
<linearGradient id="paint3_linear" x1="284.271" y1="435.285" x2="782.285" y2="-62.7293" gradientUnits="userSpaceOnUse">
<stop stop-color="#5F3DC4"/>
<stop offset="1" stop-color="#38D9C0"/>
</linearGradient>
<linearGradient id="paint4_linear" x1="920.035" y1="185.668" x2="920.035" y2="485.668" gradientUnits="userSpaceOnUse">
<stop stop-color="#5F3DC4"/>
<stop offset="1" stop-color="#38D9C0"/>
</linearGradient>
<linearGradient id="paint5_linear" x1="657.271" y1="1090.63" x2="1232.63" y2="515.271" gradientUnits="userSpaceOnUse">
<stop stop-color="#5F3DC4"/>
<stop offset="1" stop-color="#38D9C0"/>
</linearGradient>
<linearGradient id="paint6_linear" x1="270.632" y1="38" x2="270.632" y2="338" gradientUnits="userSpaceOnUse">
<stop stop-color="#5F3DC4"/>
<stop offset="1" stop-color="#38D9C0"/>
</linearGradient>
<clipPath id="clip0">
<rect width="1440" height="512" fill="white"/>
</clipPath>
</defs>
</svg>
