<svg width="287" height="287" viewBox="0 0 287 287" fill="none" xmlns="http://www.w3.org/2000/svg">
<rect width="287" height="287" fill="white"/>
<g filter="url(#filter0_i)">
<path d="M229.208 80.6264H195.444V67.7358C195.347 59.7035 196.667 60.0014 187.653 60.0014H99.3472C90.3333 60.0014 91.5556 60.1949 91.5556 67.7358V80.6264H57.7917C53.4738 80.6264 50 84.0747 50 88.3608V106.408C50 117.913 57.3047 129.74 70.096 138.86C80.3226 146.175 92.7568 150.816 105.808 152.298C116.002 169.088 127.917 176.017 127.917 176.017V199.22H112.333C100.873 199.22 91.5556 205.891 91.5556 217.267V221.134C91.5556 223.261 93.3087 225.001 95.4514 225.001H191.549C193.691 225.001 195.444 223.261 195.444 221.134V217.267C195.444 205.891 186.127 199.22 174.667 199.22H159.083V176.017C159.083 176.017 170.998 169.088 181.192 152.298C194.276 150.816 206.71 146.175 216.904 138.86C229.663 129.74 237 117.913 237 106.408V88.3608C237 84.0747 233.526 80.6264 229.208 80.6264ZM82.238 122.134C74.3165 116.462 70.7778 110.146 70.7778 106.408V101.251H91.6205C91.9451 111.757 93.5035 120.974 95.776 129.031C90.8738 127.355 86.2962 125.035 82.238 122.134ZM216.222 106.408C216.222 111.596 210.476 118.041 204.762 122.134C200.704 125.035 196.094 127.355 191.191 129.031C193.464 120.974 195.022 111.757 195.347 101.251H216.222V106.408Z" fill="url(#paint0_linear)"/>
</g>
<defs>
<filter id="filter0_i" x="50" y="60" width="187" height="169.001" filterUnits="userSpaceOnUse" color-interpolation-filters="sRGB">
<feFlood flood-opacity="0" result="BackgroundImageFix"/>
<feBlend mode="normal" in="SourceGraphic" in2="BackgroundImageFix" result="shape"/>
<feColorMatrix in="SourceAlpha" type="matrix" values="0 0 0 0 0 0 0 0 0 0 0 0 0 0 0 0 0 0 127 0" result="hardAlpha"/>
<feOffset dy="4"/>
<feGaussianBlur stdDeviation="2"/>
<feComposite in2="hardAlpha" operator="arithmetic" k2="-1" k3="1"/>
<feColorMatrix type="matrix" values="0 0 0 0 0 0 0 0 0 0 0 0 0 0 0 0 0 0 0.25 0"/>
<feBlend mode="normal" in2="shape" result="effect1_innerShadow"/>
</filter>
<linearGradient id="paint0_linear" x1="143.5" y1="60.0013" x2="143.5" y2="225.001" gradientUnits="userSpaceOnUse">
<stop stop-color="#38D9C0"/>
<stop offset="1" stop-color="#5F3DC4"/>
</linearGradient>
</defs>
</svg>
