<svg width="1059" height="833" viewBox="0 0 1059 833" fill="none" xmlns="http://www.w3.org/2000/svg">
<path fill-rule="evenodd" clip-rule="evenodd" d="M11.5471 0C3.98081 35.64 0 72.6051 0 110.5C0 402.935 237.065 640 529.5 640C821.935 640 1059 402.935 1059 110.5C1059 72.6051 1055.02 35.64 1047.45 0H11.5471Z" fill="url(#paint0_linear)" fill-opacity="0.6"/>
<path d="M545.703 634.901C545.703 634.901 499.936 622.859 485.275 621.734C478.393 621.203 467.059 623.067 456.949 625.191C460.635 630.97 465.955 643.527 458.349 660.739C459.932 660.348 461.452 660.015 462.852 659.802C483.115 656.715 522.426 654.658 535.957 659.12C544.089 661.801 552.018 652.497 552.221 644.657C552.357 639.446 545.703 634.901 545.703 634.901" fill="#C14A22"/>
<path d="M456.948 625.191C445.521 627.597 435.66 630.33 435.66 630.33L401.321 638.769C401.321 638.769 402.617 663.894 415.023 668.402C426.107 672.437 445.042 664.014 458.349 660.739C465.955 643.527 460.634 630.97 456.948 625.191" fill="#161413"/>
<path d="M385.4 376.519C376.258 377.154 365.757 384.156 361.587 391.19C354.236 403.575 354.538 411.535 354.236 423.223C354.018 431.475 353.497 451.097 338.217 458.839C330.58 462.707 285.505 499.79 285.505 499.79L299.082 515.57C299.082 515.57 341.835 495.24 350.514 491.382C362.951 485.859 373.14 471.568 376.55 464.519C383.865 449.395 395.349 414.696 395.349 414.696L385.4 376.519Z" fill="#C14A22"/>
<path d="M393.985 398.333C393.985 398.333 386.998 424.009 388.227 432.605C389.455 441.2 406.063 457.168 406.063 457.168C406.063 457.168 424.493 464.534 438.451 452.253C452.413 439.971 447.806 398.333 447.806 398.333L415.705 376.519L393.985 398.333" fill="#C14A22"/>
<path d="M380.225 579.07C380.225 579.07 383.026 558.193 389.778 540.633C402.591 534.083 406.36 556.225 406.36 556.225L380.225 579.07" fill="#452A96"/>
<path d="M458.02 579.569C454.236 603.002 462.852 621.734 462.852 621.734C462.852 621.734 448.535 637.082 433.38 650.191C415.741 665.445 392.246 640.461 392.246 640.461C392.246 640.461 437.185 572.609 458.02 579.569" fill="#452A96"/>
<path d="M460.868 616.341C460.868 616.341 450.774 623.52 445.656 627.872C441.179 631.683 436.113 640.971 429.798 642.507C423.478 644.043 411.576 642.918 411.576 642.918L415.023 635.4C415.023 635.4 424.779 637.696 429.08 636.166C433.38 634.63 437.982 627.383 445.047 621.641C452.106 615.898 459.473 611.369 459.473 611.369L460.868 616.341Z" fill="#161413"/>
<path d="M445.427 397.567C445.427 397.567 419.225 455.298 402.554 442.371C385.89 429.445 392.543 413.05 392.543 413.05L380.897 397.567C380.897 397.567 379.382 419.376 380.907 437.743C382.438 456.105 396.999 498.65 391.705 506.293C380.225 522.869 393.647 525.941 393.647 525.941L384.869 542.522C384.869 542.522 421.901 571.776 445.656 564.357C477.122 554.528 491.101 552.961 491.101 552.961C491.101 552.961 491.101 538.222 485.275 529.013C488.029 501.378 488.165 459.484 482.5 436.291C478.065 418.106 465.242 403.56 458.021 398.333C439.398 384.849 414.456 376.519 414.456 376.519L417.913 385.911L445.427 397.567" fill="#5F3DC4"/>
<path d="M387.378 412.056C387.378 412.056 384.869 423.187 385.686 429.33C386.503 435.468 391.163 449.389 401.32 454.71C411.477 460.031 422.223 452.622 427.903 444.251C433.583 435.879 446.27 410.088 450.774 405.996C455.277 401.904 458.02 398.333 458.02 398.333L454.564 395.964C454.564 395.964 449.139 399.853 445.047 405.585C440.949 411.317 429.798 436.39 423.144 443.454C417.459 449.488 409.197 457.985 400.935 450.207C392.668 442.429 387.784 434.651 388.346 426.873C388.914 419.095 389.986 412.004 389.986 412.004L387.378 412.056" fill="#161413"/>
<path d="M410.603 335.27C399.17 326.56 372.077 323.765 362.191 351.753C351.826 381.105 378.382 417.762 392.538 411.535C400.467 408.047 417.132 395.662 421.822 380.205C427.107 362.811 419.49 342.038 410.603 335.27Z" fill="#D86638"/>
<path d="M407.657 377.118C407.657 377.118 412.899 366.174 417.84 369.366C421.495 371.724 421.823 380.205 421.823 380.205C421.823 380.205 430.824 367.299 426.92 349.759C424.488 338.831 410.848 320.006 391.705 322.172C366.966 324.973 357.043 347.937 359.849 361.161C362.972 351.581 372.078 348.89 384.172 351.92C404.695 357.053 407.657 377.118 407.657 377.118" fill="#161413"/>
<path d="M460.837 410.333C442.798 415.534 441.017 440.45 442.428 449.801C443.652 457.87 446.926 468.22 451.919 473.135C456.917 478.044 476.367 471.625 478.252 459.359C480.137 447.094 479.434 404.97 460.837 410.333Z" fill="#D86638"/>
<path d="M494.412 418.387C510.749 430.147 531.116 431.61 541.382 439.357C552.768 447.958 561.478 453.351 558.713 459.359C553.783 470.053 552.336 482.495 546.021 494.162C535.962 512.743 533.542 521.724 532.344 525.327C530.61 530.527 536.546 540.065 536.546 550.691C536.546 560.328 529.168 579.278 523.03 587.347C518.772 592.944 511.004 581.085 512.738 572.859C514.471 564.633 511.592 544.563 511.592 544.563C511.592 544.563 505.834 546.75 500.233 551.737C495.87 555.621 492.939 552.347 498.639 545.766C503.21 540.482 511.973 530.075 514.591 522.833C516.809 516.7 517.809 500.805 517.429 494.162C516.325 474.832 527.076 466.908 527.07 467.09C527.07 467.09 508.292 471.042 494.298 466.112C487.259 463.634 464.69 462.249 464.69 462.249L456.949 412.233C456.949 412.233 470.573 401.232 494.412 418.387Z" fill="#D86638"/>
<path d="M439.399 609.5L364.315 605.09C364.315 605.09 362.254 614.425 358.37 622.906C355.012 630.231 352.929 639.326 351.128 647.578C354.07 651.107 359.073 656.475 364.909 660.109C369.813 663.165 383.193 664.331 389.216 664.711C406.037 641.96 439.399 609.5 439.399 609.5Z" fill="#D86638"/>
<path d="M352.934 708.927C343.048 706.907 337.467 695.167 335.108 688.737C331.854 697.947 328.986 708.87 327.986 719.157C326.664 732.729 315.064 777.107 310.499 783.094C305.933 789.076 332.901 791.544 332.901 791.544C332.901 791.544 349.181 752.409 361.358 737.832C367.626 730.329 370.932 720.12 373.446 709.468C370.094 710.145 363.008 710.989 352.934 708.927Z" fill="#D86638"/>
<path d="M357.849 708.927L351.128 734.104C351.128 734.104 359.984 728.533 362.16 719.365C364.341 710.202 365.83 708.927 365.83 708.927H357.849Z" fill="#C14A22"/>
<path d="M351.128 647.578C349.113 656.824 347.447 665.003 344.766 668.402C342.199 671.661 338.451 679.299 335.108 688.738C337.467 695.167 343.048 706.907 352.934 708.927C363.008 710.989 370.094 710.145 373.447 709.468C375.815 699.421 377.481 688.982 380.225 680.022C381.412 676.144 384.734 670.766 389.216 664.711C383.193 664.331 369.813 663.165 364.908 660.109C359.072 656.475 354.069 651.107 351.128 647.578" fill="#161413"/>
<path d="M401.31 522.125C401.31 522.125 389.128 567.679 388.081 568.834C371.057 587.603 345.979 615.294 344.766 617.096C357.547 631.423 350.555 631.647 363.644 642.064C389.039 662.28 418.308 646.698 418.308 646.698C418.308 646.698 422.161 630.158 439.398 609.5C456.631 588.836 477.096 585.374 482.584 566.471C488.643 545.589 482.584 512.431 482.584 512.431L401.31 522.125" fill="#5F3DC4"/>
<path d="M400.014 506.907C400.014 506.907 423.296 512.842 437.754 508.136C452.211 503.424 468.788 485.208 468.788 485.208C468.788 485.208 453.029 493.189 445.657 496.469C438.29 499.744 410.864 506.085 400.014 506.907" fill="#452A96"/>
<path d="M393.647 525.941C393.647 525.941 405.746 535.916 424.374 539.42C442.996 542.929 471.245 531.262 471.245 531.262C471.245 531.262 469.199 525.124 465.101 523.895C461.009 522.666 430.652 522.666 426.18 523.077C421.713 523.484 402.216 525.738 393.647 525.941" fill="#452A96"/>
<path d="M390.7 546.75C390.7 546.75 410.066 557.256 423.561 561.556C437.06 565.856 455.688 560.65 465.512 558.193C475.336 555.736 484.806 554.018 484.806 554.018C484.806 554.018 484.499 560.833 482.583 566.471C476.565 565.56 468.089 565.242 460.868 566.471C453.642 567.694 434.228 570.49 424.779 567.491C394.068 557.745 390.7 546.75 390.7 546.75" fill="#452A96"/>
<path d="M315.731 770.563C315.731 770.563 301.06 782.959 294.516 786.795C287.972 790.638 277.742 798.317 269.225 802.705C260.702 807.094 256.834 813.409 258.469 816.913C261.593 823.634 268.282 829.517 279.736 829.418C285.551 829.366 298.145 819.162 307.782 815.872C317.418 812.582 332.318 807.115 334.796 801.274C339.706 789.716 340.45 784.047 339.18 778.788C337.129 777.778 332.448 783.474 330.179 780.434C325.274 773.853 321.453 770.563 315.731 770.563Z" fill="#161413"/>
<path d="M301.908 781.652C301.908 781.652 309.228 784.104 312.477 789.294C315.731 794.485 322.16 793.522 318.891 786.093C315.616 778.663 308.546 776.461 308.546 776.461L301.908 781.652Z" fill="white"/>
<path d="M290.039 789.607C290.039 789.607 296.937 794.396 300.186 799.587C303.439 804.772 309.728 803.086 306.459 795.656C303.184 788.232 297.13 785.15 297.13 785.15L290.039 789.607Z" fill="white"/>
<path d="M278.122 797.479C278.122 797.479 285.348 801.8 288.597 806.99C291.851 812.181 298.14 810.489 294.87 803.065C291.596 795.636 285.541 792.553 285.541 792.553L278.122 797.479" fill="white"/>
<path d="M258.63 812.701C258.63 812.701 264.83 809.786 268.1 814.539C271.374 819.292 274.54 824.78 277.502 825.873C280.464 826.971 294.563 820.391 302.419 816.366C310.275 812.342 322.233 809.989 327.179 803.268C330.48 798.78 337.737 793.59 337.737 793.59C337.737 793.59 338.237 801.737 334.796 805.762C331.36 809.786 327.148 812.701 321.416 812.91C319.172 812.988 305.86 817.002 299.607 820.885C296.312 822.931 286.774 830.803 278.121 832.146C267.584 833.786 250.596 823.14 258.63 812.701" fill="#5F3DC4"/>
<path d="M312.821 772.983V766.033C312.821 766.033 317.897 763.956 324.998 768.183C328.986 770.563 333.286 776.461 333.286 776.461L331.75 781.324C331.75 781.324 323.67 787.295 312.821 772.983" fill="#5F3DC4"/>
<path d="M532.344 659.26C532.344 659.26 538.112 667.814 543.293 672.083C552.221 679.455 552.903 699.801 557.011 706.064C561.306 712.613 570.313 708.927 570.313 708.927C570.313 708.927 582.594 688.738 573.587 664.711C570.812 657.313 574.868 646.052 572.973 641.19C569.839 633.151 565.403 628.648 565.403 628.648C565.403 628.648 541.45 628.091 539.82 633.891C539.195 636.103 546.505 638.977 547.567 642.965C547.921 644.293 547.582 645.74 546.021 647.333C539.133 654.361 532.344 659.26 532.344 659.26" fill="#161413"/>
<path d="M561.317 628.424C561.317 628.424 565.81 634.901 567.954 639.748C569.652 643.59 568.652 651.149 569.287 657.349C570.125 665.534 573.322 674.92 573.791 676.998C574.504 680.137 573.994 693.782 570.105 700.332C568.381 703.237 558.032 702.789 557.011 706.064C555.986 709.338 562.92 710.166 567.855 710.223C575.633 710.317 580.6 692.142 578.528 678.226C576.451 664.305 572.286 660.468 573.843 655.127C575.399 649.785 579.392 645.375 574.853 637.238C570.313 629.101 570.75 628.247 561.317 628.424Z" fill="#5F3DC4"/>
<path d="M541.382 670.349C542.293 668.709 545.094 666.169 547.999 663.899C551.274 661.337 555.574 664.206 552.226 666.971C548.124 670.355 544.235 672.984 544.235 672.984L541.382 670.349" fill="white"/>
<path d="M546.827 676.274C546.827 676.274 551.815 673.52 554.616 671.88C557.416 670.245 560.899 673.91 556.906 676.274C552.913 678.638 549.04 680.59 549.04 680.59L546.827 676.274Z" fill="white"/>
<path d="M550.592 684.796C550.592 684.796 556.116 681.725 558.713 680.59C561.306 679.455 563.966 682.979 560.281 684.796C556.6 686.619 551.768 688.79 551.768 688.79L550.592 684.796Z" fill="white"/>
<path d="M536.384 664.711C536.384 664.711 528.892 661.681 527.633 659.5C526.378 657.313 526.919 653.388 532.344 651.529C537.769 649.67 546.021 647.333 546.021 647.333C546.021 647.333 544.823 659.786 536.384 664.711Z" fill="#5F3DC4"/>
<path d="M351.128 609.776C351.128 609.776 357.438 618.866 364.196 630.33C369.974 640.138 384.218 643.204 393.293 641.512C402.367 639.815 420.693 639.862 420.693 639.862L423.624 633.287C423.624 633.287 399.623 636.197 392.246 634.901C384.869 633.604 372.624 634.797 366.653 625.191C359.833 614.237 355.314 605.09 355.314 605.09L351.128 609.776" fill="#161413"/>
<path d="M418.308 479.684C424.509 488.712 419.729 501.102 417.413 505.2C415.096 509.292 406.36 521.521 406.36 521.521L426.18 528.039L423.624 536.614L396.536 525.941C396.536 525.941 399.196 514.685 407.995 505.2C414.987 497.661 414.513 485.005 410.421 484.188C406.329 483.365 402.19 493.392 402.19 493.392L393.292 488.894C393.292 488.894 406.36 462.285 418.308 479.684" fill="#161413"/>
<path d="M387.378 537.78C387.378 537.78 402.367 547.432 411.576 551.425C420.791 555.413 429.694 560.78 443.511 557.792C457.323 554.799 490.83 548.223 490.83 548.223L490.403 544.683C490.403 544.683 470.219 547.557 458.021 550.654C448.936 552.966 438.617 558.531 418.792 549.889C405.256 543.985 388.95 534.812 388.95 534.812L387.378 537.78" fill="#161413"/>
<path d="M476.695 463.816C476.695 463.816 469.605 462.42 464.69 462.249C459.78 462.077 458.021 474.764 458.021 474.764C458.021 474.764 464.508 474.91 469.401 471.599C475.685 467.346 476.695 463.816 476.695 463.816Z" fill="#C14A22"/>
<path d="M305.73 511.046C306.105 513.259 306.345 515.518 306.345 517.84C306.345 540.148 288.258 558.235 265.95 558.235C252.7 558.235 240.981 551.826 233.614 541.971C236.847 561.041 253.403 575.571 273.39 575.571C295.698 575.571 313.784 557.485 313.784 535.177C313.784 526.118 310.765 517.783 305.73 511.046" fill="#DB4F1E"/>
<path d="M265.95 558.235C288.258 558.235 306.344 540.148 306.344 517.84C306.344 515.518 306.105 513.259 305.73 511.046C298.363 501.191 286.639 494.782 273.389 494.782C251.081 494.782 233 512.868 233 535.177C233 537.498 233.24 539.758 233.614 541.971C240.981 551.826 252.7 558.235 265.95 558.235Z" fill="#F36118"/>
<path d="M250.67 501.784C250.67 501.784 272.223 520.589 281.537 541.533C290.851 562.478 293.553 570.079 293.553 570.079L294.948 569.334C294.948 569.334 290.284 552.43 279.283 532.527C269.553 514.909 251.727 501.087 251.727 501.087L250.67 501.784" fill="#161413"/>
<path d="M239.185 513.764C239.185 513.764 251.961 514.617 254.72 531.298C256.891 544.376 254.991 556.72 260.66 565.174C266.434 573.785 273.389 575.571 273.389 575.571L274.883 575.54C274.883 575.54 262.883 569.402 259.635 559.75C256.271 549.743 259.53 527.919 250.67 518.095C245.604 512.478 239.856 512.655 239.856 512.655L239.185 513.764Z" fill="#161413"/>
<path d="M265.861 495.511C265.861 495.511 267.002 507.553 277.445 510.406C281.667 511.561 292.543 510.359 298.296 516.335C308.864 527.305 310.478 551.175 310.478 551.175L311.478 548.655C311.478 548.655 311.478 532.834 302.924 520.042C295.458 508.875 289.487 510.114 279.387 508.99C270.214 507.964 267.002 495.375 267.002 495.375L265.861 495.511Z" fill="#161413"/>
<path d="M156.551 291.952C156.551 291.952 145.875 316.84 146.41 325.437C146.941 334.032 159.6 334.56 167.685 333.227C175.77 331.898 235.296 324.527 235.296 324.527L245.681 318.349L243.346 293.81L156.551 291.952Z" fill="#F68C83"/>
<path d="M235.297 324.527C235.297 324.527 242.369 327.907 243.705 333.782C244.567 337.584 245.262 342.04 250.287 342.84C255.316 343.641 258.058 334.348 257.719 324.527C257.376 314.704 264.772 306.568 259.993 300.982C256.62 297.044 243.346 293.81 243.346 293.81C243.346 293.81 244.576 308.932 241.303 314.203C239.884 316.488 235.297 324.527 235.297 324.527" fill="#FCC419"/>
<path d="M189.649 293.81C189.649 293.81 183.342 300.783 174.751 314.204C166.16 327.626 159.754 352.183 155.484 363.93C151.215 375.673 132.547 419.318 132.547 419.318L147.467 428.988C147.467 428.988 168.358 402.261 178.361 380.666C188.092 359.657 187.986 349.218 193.387 342.888C198.787 336.562 229.976 307.951 229.976 307.951C229.976 307.951 216.309 276.129 189.649 293.81Z" fill="#FABAAC"/>
<path d="M186.305 235.596C186.305 235.596 172.144 254.354 167.685 260.161C163.226 265.965 146.41 298.044 146.41 298.044C146.41 298.044 151.215 306.004 154.418 308.407C157.621 310.809 174.751 314.203 174.751 314.203L189.649 293.81C189.649 293.81 203.88 286.423 213.583 293.81C223.285 301.2 236.559 314.203 236.559 314.203C236.559 314.203 255.316 300.982 254.461 279.607C254.009 268.351 253.715 255.687 253.715 255.687L186.305 235.596Z" fill="#161413"/>
<path d="M104.47 218.997C104.47 218.997 90.7447 230.016 85.407 233.219C80.0681 236.423 81.5934 242.211 86.6172 247.441C89.5448 250.49 92.7544 249.853 95.5033 248.488C96.4931 247.995 97.4175 246.215 93.2899 244.527C91.0625 243.617 94.5385 238.072 95.1593 237.671C98.3624 235.596 102.593 236.016 100.765 237.671C95.1593 242.743 96.832 244.913 97.8281 244.527C100.206 243.603 108.177 240.718 108.505 239.273C109.039 236.922 112.776 232.778 112.776 232.778L104.47 218.997Z" fill="#F68C83"/>
<path d="M319.119 238.835C318.982 242.585 317.861 248.909 319.119 252.714C320.375 256.519 322.733 263.947 325.619 262.582C328.501 261.214 323.242 254.892 323.36 252.714C323.482 250.533 327.006 249.763 329.088 252.714C331.173 255.66 331.56 257.871 331.154 262.746C330.744 267.624 332.88 270.356 334.591 271.128C336.298 271.897 341 255.746 341 252.714C341 249.681 338.364 234.725 338.364 234.725L319.119 238.835" fill="#FABAAC"/>
<path d="M198.973 141.652C198.973 141.652 185.427 138.769 174.751 154.573C172.583 157.786 146.942 182.927 140.535 186.943C134.129 190.961 133.063 199.17 130.926 202.54C128.793 205.907 122.108 203.09 120.25 205.115C113.844 212.098 97.8282 224.165 97.8282 224.165L112.777 232.778C112.777 232.778 131.964 229.565 141.605 224.132C162.957 212.098 185.341 184.762 185.341 184.762C185.341 184.762 191.914 208.79 191.078 211.957C190.242 215.128 185.632 223.062 182.964 227.71C178.441 235.596 182.759 240.289 182.759 240.289L179.005 245.254C179.005 245.254 194.345 261.923 201.991 265.27C220.614 273.419 254.484 262.432 254.484 262.432C254.484 262.432 257.142 237.989 253.715 216.211C252.795 210.385 250.377 192.85 250.377 192.85C250.377 192.85 265.579 191.364 274.336 197.495C278.6 200.478 286.345 200.09 290.189 205.394C293.754 210.311 299.359 202.54 300.16 206.307C301.07 210.596 305.035 215.007 308.168 218.997C309.981 221.311 319.094 240.289 319.094 240.289L338.793 237.217C338.793 237.217 333.22 208.104 322.982 198.997C320.65 196.925 319.645 190.967 315.775 186.943C314.187 185.291 310.298 186.245 308.488 184.343C305.766 181.479 308.081 178.206 306.166 176.684C302.028 173.398 294.218 173.247 288.626 170.374C271.864 161.757 269.195 154.573 254.484 147.807C245.262 143.567 216.062 134.685 216.062 134.685L198.973 141.652" fill="#FCC419"/>
<path d="M203.349 149.941C203.349 149.941 204.902 166.303 206.276 167.046C212.99 170.672 226.52 161.895 232.644 149.941C224.262 141.591 216.062 134.685 216.062 134.685L203.349 149.941" fill="#F68C83"/>
<path d="M224.835 111.626C219.057 105.066 199.034 99.8733 190.341 115.687C188.425 119.169 188.416 125.953 188.163 129.819C187.211 144.368 196.407 159.339 203.602 157.494C208.701 156.184 219.922 150.396 224.262 141.591C229.147 131.677 232.359 120.165 224.835 111.626Z" fill="#FABAAC"/>
<path d="M190.341 115.687C190.341 115.687 192.522 122.836 199.617 124.345C207.157 125.953 217.276 121.225 217.276 121.225C217.276 121.225 220.876 126.853 220.341 129.55C224.819 128.263 226.962 134.685 226.962 134.685C226.962 134.685 232.135 128.628 229.915 118.355C228.894 113.631 226.901 106.827 220.088 104.207C218.849 103.73 215.594 102.843 212.074 102.074C206.949 100.949 203.349 97.0001 203.349 97.0001C203.349 97.0001 202.465 98.8707 202.73 103.275C199.028 100.719 195.924 97.5349 195.924 97.5349C195.924 97.5349 194.457 102.205 195.12 105.258C192.586 103.57 189.604 103.57 189.604 103.57C189.604 103.57 189.223 112.628 190.341 115.687" fill="#161413"/>
<path d="M121.65 409.392C121.65 409.392 129.071 403.709 135.538 404.305C142.005 404.901 146.791 410.106 148.879 416.913C150.968 423.719 152.015 438.534 140.916 448.201C134.773 453.55 121.65 409.392 121.65 409.392Z" fill="#FCC419"/>
<path d="M119.984 432.865C119.984 432.865 112.456 412.073 123.988 408.209C135.519 404.343 144.443 416.74 146.41 423.188C150.414 436.317 142.406 441.47 141.605 446.141C140.804 450.811 136.8 452.195 128.793 447.967C120.785 443.739 122.335 444.446 119.984 432.865" fill="#161413"/>
<path d="M245.681 340.8C245.681 340.8 251.312 339.637 252.113 336.034C252.545 334.079 250.511 321.084 252.113 318.349C253.715 315.614 260.204 311.446 260.377 307.715C260.55 303.982 259.993 300.982 259.993 300.982C259.993 300.982 267.728 304.002 262.924 312.868C260.64 317.078 257.718 322.632 257.718 324.527C257.718 326.421 260.07 341.239 254.49 345.643C248.91 350.047 245.681 340.8 245.681 340.8" fill="#161413"/>
<path d="M196.036 190.425V201.482C196.036 201.482 208.871 201.653 213.676 205.115C218.48 208.578 232.645 212.664 232.645 212.664V201.544C232.645 201.544 220.88 194.741 214.339 192.85C207.801 190.961 196.036 190.425 196.036 190.425" fill="white"/>
<path d="M261.604 161.757L255.089 173.875C255.089 173.875 266.527 178.148 271.864 180.282C277.203 182.417 279.871 184.019 279.871 184.019L284.676 172.888C284.676 172.888 269.496 162.449 261.604 161.757Z" fill="white"/>
<path d="M315.298 232.515C315.298 232.515 317.835 231.234 324.696 228.329C331.49 225.448 335.25 223.264 335.25 223.264L333.889 218.997C333.889 218.997 325.25 222.073 322.047 224.132C318.844 226.195 313.853 229.594 313.853 229.594L315.298 232.515" fill="#F08C00"/>
<path d="M182.759 240.289C182.759 240.289 190.985 247.816 196.59 254.223C202.196 260.629 206.34 263.031 216.478 262.095C226.616 261.161 242.235 258.627 242.235 258.627C242.235 258.627 237.85 255.956 229.976 255.155C222.1 254.354 211.805 258.227 208.736 256.356C205.668 254.488 194.457 243.277 189.783 241.811C185.113 240.34 182.759 240.289 182.759 240.289Z" fill="#F08C00"/>
<path d="M199.662 240.289C199.662 240.289 204.825 248.332 209.403 249.683C227.02 254.888 241.033 244.213 241.033 244.213C241.033 244.213 230.758 243.683 225.287 244.613C211.939 246.874 205.799 238.632 199.662 240.289Z" fill="#F08C00"/>
<path d="M104.469 218.997C104.469 218.997 111.708 223.183 113.844 225.756C115.98 228.329 118.158 231.733 118.158 231.733L120.875 231.134C120.875 231.134 118.914 225.125 115.711 222.191C112.509 219.253 107.929 216.204 107.929 216.204L104.469 218.997Z" fill="#F08C00"/>
<path d="M185.341 184.762C185.341 184.762 185.571 178.949 185.341 176.278C185.113 173.609 185.443 167.872 185.443 167.872C185.443 167.872 178.172 173.876 176.57 178.149C174.969 182.418 178.608 192.447 178.608 192.447L185.341 184.762" fill="#F08C00"/>
<path d="M250.377 192.85L248.449 177.613C248.449 177.613 242.235 183.218 241.033 186.421C239.832 189.625 240.082 200.993 251.969 204.25C251.312 198.997 250.377 192.85 250.377 192.85" fill="#F08C00"/>
<path d="M178.441 333.782C175.238 336.703 171.5 346.83 171.5 346.83C171.5 346.83 176.839 342.04 178.441 340.438C180.043 338.836 178.441 333.782 178.441 333.782Z" fill="#F68C83"/>
<path d="M246.264 264.68C246.069 264.729 247.257 278.511 245.681 282.782C244.105 287.055 224.899 303.319 224.899 303.319L227.164 305.364C227.164 305.364 239.807 296.202 245.681 288.463C251.553 280.722 250.777 277.445 250.777 272.372C250.777 267.3 250.777 263.518 250.777 263.518L246.264 264.68Z" fill="white"/>
<path d="M217.997 290.79L224.899 297.465C224.899 297.465 229.726 292.925 232.645 289.722C235.563 286.519 237.856 284.441 237.856 284.441L231.274 279.71L217.997 290.79Z" fill="white"/>
<path d="M98.8941 357.612C99.1254 358.977 99.273 360.374 99.273 361.805C99.273 375.576 88.1111 386.738 74.3399 386.738C66.162 386.738 58.9261 382.787 54.3793 376.704C56.3774 388.471 66.595 397.444 78.9332 397.444C92.7041 397.444 103.866 386.28 103.866 372.511C103.866 366.918 102.003 361.77 98.8941 357.612" fill="#161413"/>
<path d="M74.3399 386.738C88.1111 386.738 99.273 375.576 99.273 361.805C99.273 360.374 99.1254 358.978 98.8941 357.612C94.3469 351.53 87.1114 347.574 78.9332 347.574C65.1635 347.574 54 358.737 54 372.511C54 373.942 54.1477 375.336 54.3793 376.704C58.9261 382.787 66.162 386.738 74.3399 386.738" fill="white"/>
<path d="M99.2729 374.071C98.1531 369.221 96.7607 357.612 89.5536 353.83C82.3466 350.047 77.1415 365.342 75.1396 372.511C73.1376 379.676 75.1396 392.358 75.1396 392.358L65.9306 388.824C65.9306 388.824 62.9087 373.859 73.1376 360.858C79.1233 353.251 85.1942 347.427 89.3608 349.89C93.5274 352.353 102.734 365.153 102.734 365.153L99.2729 374.071" fill="#161413"/>
<path d="M55.8055 363.218C55.8055 363.218 63.1279 360.458 68.7334 355.653C74.3388 350.848 76.6371 347.68 76.6371 347.68C76.6371 347.68 70.3785 347.916 65.5139 351.511C57.2546 357.612 55.8055 363.218 55.8055 363.218Z" fill="#161413"/>
<path d="M635.554 475.056C632.166 489.339 640.317 496.269 653.074 497.712C662.619 498.79 720.184 505.906 720.184 505.906C720.184 505.906 730.735 499.155 724.971 493.48C721.925 491.134 690.203 480.205 678.01 474.586C665.813 468.968 648.97 465.054 648.97 465.054C648.97 465.054 638.542 462.464 635.554 475.056" fill="#C72949"/>
<path d="M711.179 508.84C711.179 508.84 717.318 517.687 722.081 525.685C725.353 531.182 728.885 534.606 731.319 540.177C733.415 544.984 738.452 539.832 742.005 533.508C743.783 530.347 744.253 525.205 744.043 521.544C743.736 516.24 741.099 514.908 736.427 506.991C734.21 503.236 733.216 497.076 731.83 492.932C730.295 488.345 725.948 484.707 725.948 484.707C725.948 484.707 713.264 480.614 711.889 484.87C710.969 487.719 720.252 489.481 718.835 493.899C717.145 499.169 710.841 504.858 711.179 508.84" fill="#161413"/>
<path d="M711.493 506.809C714.011 511.704 717.902 515.456 720.796 519.208C723.689 522.96 726.627 520.06 723.869 515.72C720.776 510.855 713.812 502.499 713.812 502.499C713.812 502.499 711.402 505.588 711.493 506.809" fill="white"/>
<path d="M732.922 541.928C732.922 541.928 733.223 537.709 736.792 535.603C740.362 533.494 742.161 530.668 742.894 524.806C743.628 518.941 738.611 514.151 735.613 507.055C732.614 499.96 732.083 493.767 730.85 490.958C729.244 487.293 723.274 483.967 723.274 483.967C723.274 483.967 726.12 483.467 727.679 483.994C730.447 484.934 732.462 487.658 733.287 489.2C734.413 491.303 735.626 493.27 736.001 497.796C736.191 500.112 737.712 505.45 738.898 507.826C740.085 510.206 746.362 515.78 746.227 522.923C746.095 530.066 743.509 537.527 738.969 540.63C734.426 543.733 732.922 541.928 732.922 541.928" fill="#FF3860"/>
<path d="M741.231 523.373C741.231 523.373 727.493 518.732 727.195 506.238C726.823 490.654 719.092 483.149 719.092 483.149L723.274 483.967C723.274 483.967 729.325 488.49 730.366 498.023C730.985 503.685 731.073 507.536 732.901 512.701C734.325 516.737 741.231 523.373 741.231 523.373Z" fill="#FF3860"/>
<path d="M621.603 154.81C612.69 166.506 629.804 188.307 632.381 202.968C634.343 214.143 646.061 243.705 648.705 252.413C653.131 267 656.336 272.72 661.806 281.123C671.141 295.467 680.711 302.38 680.711 302.38C680.711 302.38 686.684 272.662 682.992 270.999C679.304 269.339 640.13 203.65 640.259 189.128C640.388 174.609 633.974 138.57 621.603 154.81" fill="#F68C83"/>
<path d="M695.517 260.567L688.509 271.952C688.509 271.952 692.877 280.61 701.778 279.18C710.682 277.75 716.107 270.779 716.107 270.779L715.644 254.884L695.517 260.567" fill="#F68C83"/>
<path d="M696.23 219.613C684.554 225.887 677.946 258.464 690.132 264.667C698.036 268.69 712.125 265.053 721.04 251.859C728.514 240.801 718.328 207.737 696.23 219.613" fill="#FABAAC"/>
<path d="M689.784 225.846C689.784 225.846 699.398 235.136 713.119 237.34C714.387 239.801 714.045 242.786 714.204 245.919C722.818 243.668 721.039 251.859 715.644 254.884C713.863 256.487 714.448 260.006 714.448 260.006C714.448 260.006 726.404 254.323 728.825 240.852C731.242 227.381 723.548 213.136 702.809 215.6C694.557 216.58 689.784 225.846 689.784 225.846" fill="#161413"/>
<path d="M725.779 230.133C725.779 230.133 736.066 232.695 736.961 242.894C737.854 253.093 734.484 257.978 734.484 257.978C734.484 257.978 722.723 251.342 723.666 242.992C724.613 234.646 725.779 230.133 725.779 230.133Z" fill="#161413"/>
<path d="M733.378 252.157C733.378 252.157 728.757 261.165 730.786 267.936C732.814 274.707 737.107 274.657 737.107 274.657C737.107 274.657 739.101 267.723 738.926 263.569C738.753 259.411 733.378 252.157 733.378 252.157" fill="#161413"/>
<path d="M735.825 271.8C735.825 271.8 733.074 281.543 736.397 287.783C739.72 294.02 743.915 293.124 743.915 293.124C743.915 293.124 744.506 285.934 743.516 281.894C742.525 277.855 735.825 271.8 735.825 271.8" fill="#161413"/>
<path d="M740.721 289.534C740.721 289.534 740.007 298.266 742.215 303.482C744.425 308.698 748.881 312.856 748.881 312.856C748.881 312.856 753.465 312.751 754.665 310.665C755.865 308.579 755.304 306.774 755.304 306.774C755.304 306.774 748.462 292.803 740.721 289.534Z" fill="#161413"/>
<path d="M661.45 398.394C661.45 398.394 655.109 418.143 648.771 433.964C641.758 451.467 632.533 475.195 632.533 475.195C632.533 475.195 629.15 496.85 656.377 486.996C666.53 483.321 671.563 460.037 676.881 450.565C681.309 442.675 698.002 408.668 698.002 408.668L661.45 398.394Z" fill="#F68C83"/>
<path d="M689.835 399.892C688.847 402.569 680.336 483.852 678.459 494.615C676.58 505.379 681.191 516.159 681.191 516.159C681.191 516.159 702.444 526.236 705.182 520.939C707.92 515.642 707.589 514.499 707.589 514.499C707.589 514.499 711.899 485.221 717.446 458.915C721.029 441.938 729.47 428.906 729.528 422.156C729.683 404.283 689.835 399.892 689.835 399.892" fill="#FABAAC"/>
<path d="M668.933 369.11L658.195 407.792C658.195 407.792 660.709 410.223 669.038 415.882C676.762 421.135 686.63 423.481 686.63 423.481C686.63 423.481 687.069 432.442 700.733 436.502C714.397 440.566 724.224 438.22 724.224 438.22C724.224 438.22 737.722 416.027 725.13 382.04C718.261 363.505 668.933 369.11 668.933 369.11" fill="#161413"/>
<path d="M683.824 268.778C683.824 268.778 672.507 288.878 669.937 297.917C667.368 306.957 670.543 319.687 670.543 319.687C670.543 319.687 675.536 350.876 674.166 354.155C672.797 357.43 668.933 369.11 668.933 369.11C668.933 369.11 683.108 386.935 706.169 386.928C717.142 386.928 725.13 382.04 725.13 382.04C725.13 382.04 717.345 366.507 718.051 359.78C718.758 353.052 730.228 311.689 729.291 296.558C728.355 281.428 716.108 270.779 716.108 270.779C716.108 270.779 703.086 281.529 697.593 275.877C692.103 270.221 683.824 268.778 683.824 268.778" fill="#FF3860"/>
<path d="M680.518 286.641C680.454 286.776 674.055 291.694 674.055 291.694L674.592 294.659L680.139 290.707C680.139 290.707 676.867 301.011 675.924 306.582C674.981 312.153 675.099 315.418 675.099 315.418L678.273 316.277C678.273 316.277 679.436 303.796 680.941 298.279C682.445 292.759 684.196 287.57 684.196 287.57L680.518 286.641" fill="#161413"/>
<path d="M648.581 170.897C639.204 154.299 631.147 172.75 635.571 187.529C636.527 190.724 639.976 200.693 642.31 212.561C643.44 218.308 652.113 243.776 664.985 266.219C674.048 282.019 684.362 293.739 697.63 304.442C701.784 320.847 711.355 320.607 718.639 316.939C727.628 312.416 725.64 294.28 721.452 287.093C713.957 274.241 697.099 272.25 692.928 264.999C675.671 235.007 656.77 212.751 656.657 208.542C656.416 199.672 659.197 189.693 648.581 170.897Z" fill="#FABAAC"/>
<path d="M679.017 508.938C679.359 525.567 695.112 534.315 712.179 555.152C717.044 561.092 732.847 588.964 732.847 588.964L745.338 578.86C745.338 578.86 733.361 540.015 723.122 524.292C718.416 517.062 708.917 505.906 708.917 505.906C708.917 505.906 684.95 511.95 679.017 508.938" fill="#FF3860"/>
<path d="M721.209 577.656C721.209 577.656 717.767 587.858 714.187 596.451C711.723 602.357 711.081 607.235 708.055 612.509C705.449 617.059 712.588 618.029 719.782 617.113C723.382 616.656 727.79 613.969 730.603 611.616C734.68 608.209 734.176 605.295 737.746 596.827C739.443 592.807 743.793 588.338 746.295 584.752C749.063 580.786 749.388 575.128 749.388 575.128C749.388 575.128 745.115 562.505 740.879 563.935C738.043 564.895 742.164 573.397 737.773 574.894C732.533 576.683 724.207 575.009 721.209 577.656Z" fill="#161413"/>
<path d="M723.027 576.696C720.6 581.638 719.91 587 718.622 591.56C717.334 596.12 721.411 596.749 723.254 591.949C725.316 586.564 727.871 575.993 727.871 575.993C727.871 575.993 723.953 575.898 723.027 576.696" fill="white"/>
<path d="M707.606 614.838C707.606 614.838 711.172 612.566 714.995 614.175C718.815 615.784 722.158 615.544 727.3 612.637C732.445 609.73 733.304 602.847 737.212 596.211C741.119 589.572 745.774 585.455 747.295 582.791C749.28 579.316 748.391 572.538 748.391 572.538C748.391 572.538 750.493 574.526 750.997 576.094C751.893 578.876 750.906 582.118 750.159 583.7C749.141 585.854 748.286 588.004 744.875 591.002C743.131 592.533 739.75 596.935 738.55 599.308C737.347 601.678 736.613 610.041 730.799 614.192C724.984 618.343 717.456 620.716 712.257 618.921C707.058 617.123 707.606 614.838 707.606 614.838" fill="#FF3860"/>
<path d="M727.459 610.45C727.459 610.45 722.993 596.651 732.847 588.964C745.139 579.377 746.555 568.695 746.555 568.695L748.391 572.538C748.391 572.538 748.367 580.093 741.336 586.611C737.154 590.485 734.118 592.851 731.059 597.398C728.672 600.947 727.459 610.45 727.459 610.45Z" fill="#FF3860"/>
<path d="M635.25 493.361C639.004 498.608 653.074 497.712 653.074 497.712C653.074 497.712 664.745 493.02 667.913 484.146C671.083 475.273 669.102 469.901 669.102 469.901C669.102 469.901 662.463 479.917 654.57 481.956C641.328 485.373 633.652 472.511 633.652 472.511C633.652 472.511 627.784 482.936 635.25 493.361" fill="#161413"/>
<path d="M678.01 498.006C678.01 498.006 671.729 508.124 674.768 516.592C678.165 526.074 685.836 527.223 685.836 527.223C685.836 527.223 695.027 522.491 701.281 516.561C706.51 511.599 708.995 505.179 708.917 505.906L678.01 498.006" fill="#161413"/>
<path d="M642.296 213.362L648.682 231.698C648.682 231.698 652.649 235.819 658.474 232.347C664.103 228.994 664.985 223.152 664.985 223.152L657.218 210.364C657.218 210.364 649.712 217.899 642.296 213.362Z" fill="#161413"/>
<path d="M670.982 363.025C670.982 363.025 683.854 375.928 697.4 378.038C710.945 380.15 722.75 376.875 722.75 376.875L721.401 373.558C721.401 373.558 710.411 375.593 697.724 374.542C685.038 373.494 671.867 360.446 671.867 360.446L670.982 363.025Z" fill="#161413"/>
<path d="M709.766 375.441C709.336 371.841 707.991 357.954 710.56 342.627C713.552 324.799 714.224 318.863 714.224 318.863L711.72 319.089C711.72 319.089 709.657 333.206 708.261 342.127C706.886 350.913 706.412 365.124 707.859 375.668C708.471 375.512 709.11 375.428 709.766 375.441" fill="#161413"/>
<path d="M678.01 339.511C678.01 339.511 681.914 356.677 688.51 361.734C695.105 366.794 703.549 368.775 703.549 368.775C703.549 368.775 695.859 359.749 692.62 357.038C684.541 350.277 678.01 339.511 678.01 339.511Z" fill="#C72949"/>
<path d="M675.742 322.162C675.742 322.162 680.488 332.439 689.784 344.52C694.851 351.109 701.281 354.368 701.281 354.368C701.281 354.368 697.096 342.719 694.347 339.511C685.808 329.538 675.742 322.162 675.742 322.162Z" fill="#C72949"/>
<path d="M629.732 102.616C629.843 104.073 629.861 105.553 629.721 107.061C628.373 121.529 615.551 132.167 601.081 130.819C592.488 130.021 585.271 125.156 581.088 118.321C582.036 130.883 591.895 141.308 604.86 142.515C619.33 143.864 632.154 133.226 633.501 118.754C634.047 112.879 632.594 107.291 629.732 102.616" fill="#3D58B0"/>
<path d="M601.081 130.819C615.551 132.167 628.373 121.529 629.721 107.061C629.861 105.553 629.843 104.073 629.732 102.616C625.55 95.7803 618.333 90.9159 609.74 90.1147C595.27 88.7693 582.447 99.4076 581.099 113.876C580.96 115.38 580.978 116.861 581.088 118.321C585.271 125.156 592.488 130.021 601.081 130.819" fill="#5285CD"/>
<path d="M592.226 128.375C592.226 128.375 597.526 110.164 608.717 103.244C619.908 96.328 627.411 99.3535 629.732 102.616C632.19 106.07 633.2 111.723 633.2 111.723C633.2 111.723 627.104 135.281 608.851 133.621C596.014 132.455 592.226 128.375 592.226 128.375" fill="#FABD09"/>
<defs>
<linearGradient id="paint0_linear" x1="25.5" y1="-37" x2="879" y2="515.5" gradientUnits="userSpaceOnUse">
<stop stop-color="#5F3DC4"/>
<stop offset="0.515625" stop-color="#FF3860"/>
<stop offset="1" stop-color="#FCC419"/>
</linearGradient>
</defs>
</svg>
