<svg width="826" height="870" viewBox="0 0 826 870" fill="none" xmlns="http://www.w3.org/2000/svg">
<circle cx="529.5" cy="147.5" r="529.5" fill="url(#paint0_linear)" fill-opacity="0.6"/>
<path d="M545.703 671.901C545.703 671.901 499.936 659.859 485.275 658.734C478.393 658.203 467.059 660.067 456.949 662.191C460.635 667.97 465.955 680.527 458.349 697.739C459.932 697.348 461.452 697.015 462.852 696.802C483.115 693.714 522.426 691.658 535.957 696.12C544.089 698.801 552.018 689.497 552.221 681.657C552.357 676.446 545.703 671.901 545.703 671.901" fill="#C14A22"/>
<path d="M456.948 662.191C445.521 664.596 435.66 667.33 435.66 667.33L401.321 675.769C401.321 675.769 402.617 700.894 415.023 705.402C426.107 709.437 445.042 701.013 458.349 697.739C465.955 680.527 460.634 667.97 456.948 662.191" fill="#161413"/>
<path d="M385.4 413.519C376.258 414.154 365.757 421.156 361.587 428.19C354.236 440.575 354.538 448.535 354.236 460.223C354.018 468.475 353.497 488.097 338.217 495.839C330.58 499.707 285.505 536.79 285.505 536.79L299.082 552.57C299.082 552.57 341.835 532.24 350.514 528.382C362.951 522.859 373.14 508.568 376.55 501.519C383.865 486.395 395.349 451.696 395.349 451.696L385.4 413.519Z" fill="#C14A22"/>
<path d="M393.985 435.333C393.985 435.333 386.998 461.009 388.227 469.605C389.455 478.2 406.063 494.168 406.063 494.168C406.063 494.168 424.493 501.534 438.451 489.253C452.413 476.972 447.806 435.333 447.806 435.333L415.705 413.519L393.985 435.333" fill="#C14A22"/>
<path d="M380.225 616.07C380.225 616.07 383.026 595.193 389.778 577.633C402.591 571.083 406.36 593.225 406.36 593.225L380.225 616.07" fill="#452A96"/>
<path d="M458.02 616.569C454.236 640.002 462.852 658.734 462.852 658.734C462.852 658.734 448.535 674.082 433.38 687.191C415.741 702.445 392.246 677.461 392.246 677.461C392.246 677.461 437.185 609.609 458.02 616.569" fill="#452A96"/>
<path d="M460.868 653.341C460.868 653.341 450.774 660.52 445.656 664.872C441.179 668.683 436.113 677.971 429.798 679.507C423.478 681.043 411.576 679.918 411.576 679.918L415.023 672.4C415.023 672.4 424.779 674.696 429.08 673.166C433.38 671.63 437.982 664.383 445.047 658.641C452.106 652.898 459.473 648.369 459.473 648.369L460.868 653.341Z" fill="#161413"/>
<path d="M445.427 434.567C445.427 434.567 419.225 492.298 402.554 479.371C385.89 466.445 392.543 450.05 392.543 450.05L380.897 434.567C380.897 434.567 379.382 456.376 380.907 474.743C382.438 493.105 396.999 535.65 391.705 543.293C380.225 559.869 393.647 562.941 393.647 562.941L384.869 579.522C384.869 579.522 421.901 608.776 445.656 601.357C477.122 591.528 491.101 589.961 491.101 589.961C491.101 589.961 491.101 575.222 485.275 566.013C488.029 538.378 488.164 496.484 482.5 473.291C478.065 455.106 465.242 440.56 458.021 435.333C439.398 421.849 414.456 413.519 414.456 413.519L417.913 422.911L445.427 434.567" fill="#5F3DC4"/>
<path d="M387.378 449.056C387.378 449.056 384.869 460.187 385.686 466.33C386.503 472.468 391.163 486.389 401.32 491.71C411.477 497.031 422.223 489.623 427.903 481.251C433.583 472.88 446.27 447.088 450.774 442.996C455.277 438.904 458.02 435.333 458.02 435.333L454.564 432.964C454.564 432.964 449.139 436.853 445.047 442.585C440.949 448.317 429.798 473.39 423.144 480.454C417.459 486.488 409.197 494.985 400.935 487.207C392.668 479.429 387.784 471.651 388.346 463.873C388.914 456.095 389.986 449.004 389.986 449.004L387.378 449.056" fill="#161413"/>
<path d="M410.603 372.27C399.17 363.56 372.077 360.765 362.191 388.753C351.826 418.105 378.382 454.762 392.538 448.535C400.467 445.047 417.132 432.662 421.822 417.205C427.107 399.811 419.49 379.038 410.603 372.27Z" fill="#D86638"/>
<path d="M407.657 414.118C407.657 414.118 412.899 403.174 417.84 406.366C421.495 408.724 421.823 417.205 421.823 417.205C421.823 417.205 430.824 404.299 426.92 386.759C424.488 375.832 410.848 357.006 391.705 359.172C366.966 361.973 357.043 384.937 359.849 398.161C362.972 388.581 372.078 385.89 384.172 388.92C404.695 394.053 407.657 414.118 407.657 414.118" fill="#161413"/>
<path d="M460.837 447.333C442.798 452.534 441.017 477.45 442.428 486.801C443.652 494.87 446.926 505.22 451.919 510.135C456.917 515.044 476.367 508.625 478.252 496.359C480.137 484.094 479.434 441.97 460.837 447.333Z" fill="#D86638"/>
<path d="M494.412 455.387C510.749 467.147 531.116 468.61 541.382 476.357C552.768 484.958 561.478 490.351 558.713 496.359C553.783 507.053 552.336 519.495 546.021 531.162C535.962 549.743 533.542 558.724 532.344 562.327C530.61 567.527 536.546 577.065 536.546 587.691C536.546 597.328 529.168 616.278 523.03 624.347C518.772 629.944 511.004 618.085 512.738 609.859C514.471 601.633 511.592 581.563 511.592 581.563C511.592 581.563 505.834 583.75 500.233 588.737C495.87 592.621 492.939 589.347 498.639 582.766C503.21 577.482 511.973 567.075 514.591 559.833C516.809 553.7 517.809 537.805 517.429 531.162C516.325 511.832 527.076 503.908 527.07 504.09C527.07 504.09 508.292 508.042 494.298 503.112C487.259 500.634 464.69 499.249 464.69 499.249L456.949 449.233C456.949 449.233 470.573 438.232 494.412 455.387Z" fill="#D86638"/>
<path d="M439.399 646.5L364.315 642.09C364.315 642.09 362.254 651.425 358.37 659.906C355.012 667.231 352.929 676.326 351.128 684.578C354.07 688.107 359.073 693.475 364.909 697.109C369.813 700.165 383.193 701.331 389.216 701.711C406.037 678.96 439.399 646.5 439.399 646.5Z" fill="#D86638"/>
<path d="M352.934 745.927C343.048 743.907 337.467 732.167 335.108 725.737C331.854 734.947 328.986 745.87 327.986 756.157C326.664 769.729 315.064 814.107 310.499 820.094C305.933 826.076 332.901 828.544 332.901 828.544C332.901 828.544 349.181 789.409 361.358 774.832C367.626 767.329 370.932 757.12 373.446 746.468C370.094 747.145 363.008 747.989 352.934 745.927Z" fill="#D86638"/>
<path d="M357.849 745.927L351.128 771.104C351.128 771.104 359.984 765.533 362.16 756.365C364.341 747.203 365.83 745.927 365.83 745.927H357.849Z" fill="#C14A22"/>
<path d="M351.128 684.578C349.113 693.824 347.447 702.003 344.766 705.402C342.199 708.661 338.451 716.299 335.108 725.738C337.467 732.167 343.048 743.907 352.934 745.927C363.008 747.989 370.094 747.145 373.447 746.468C375.815 736.421 377.481 725.982 380.225 717.022C381.412 713.144 384.734 707.766 389.216 701.711C383.193 701.331 369.813 700.165 364.908 697.109C359.072 693.475 354.069 688.107 351.128 684.578" fill="#161413"/>
<path d="M401.31 559.125C401.31 559.125 389.128 604.679 388.081 605.834C371.057 624.603 345.979 652.294 344.766 654.096C357.547 668.423 350.555 668.647 363.644 679.064C389.039 699.28 418.308 683.698 418.308 683.698C418.308 683.698 422.161 667.158 439.398 646.5C456.631 625.836 477.096 622.374 482.584 603.471C488.643 582.589 482.584 549.431 482.584 549.431L401.31 559.125" fill="#5F3DC4"/>
<path d="M400.014 543.907C400.014 543.907 423.296 549.842 437.754 545.136C452.211 540.424 468.788 522.208 468.788 522.208C468.788 522.208 453.029 530.189 445.657 533.469C438.29 536.743 410.864 543.084 400.014 543.907" fill="#452A96"/>
<path d="M393.647 562.941C393.647 562.941 405.746 572.916 424.374 576.42C442.996 579.929 471.245 568.262 471.245 568.262C471.245 568.262 469.199 562.124 465.101 560.895C461.009 559.666 430.652 559.666 426.18 560.078C421.713 560.484 402.216 562.738 393.647 562.941" fill="#452A96"/>
<path d="M390.7 583.75C390.7 583.75 410.066 594.256 423.561 598.556C437.06 602.856 455.688 597.65 465.512 595.193C475.336 592.736 484.806 591.018 484.806 591.018C484.806 591.018 484.499 597.833 482.583 603.471C476.565 602.56 468.089 602.242 460.868 603.471C453.642 604.694 434.228 607.49 424.779 604.491C394.068 594.745 390.7 583.75 390.7 583.75" fill="#452A96"/>
<path d="M315.731 807.563C315.731 807.563 301.06 819.959 294.516 823.796C287.972 827.638 277.742 835.317 269.225 839.706C260.702 844.094 256.834 850.409 258.469 853.913C261.593 860.634 268.282 866.517 279.736 866.418C285.551 866.366 298.145 856.162 307.782 852.872C317.418 849.582 332.318 844.115 334.796 838.274C339.706 826.716 340.45 821.047 339.18 815.788C337.129 814.778 332.448 820.474 330.179 817.434C325.274 810.853 321.453 807.563 315.731 807.563Z" fill="#161413"/>
<path d="M301.908 818.652C301.908 818.652 309.228 821.104 312.477 826.294C315.731 831.485 322.16 830.522 318.891 823.093C315.616 815.663 308.546 813.461 308.546 813.461L301.908 818.652Z" fill="white"/>
<path d="M290.039 826.607C290.039 826.607 296.937 831.396 300.186 836.587C303.439 841.772 309.728 840.086 306.459 832.656C303.184 825.232 297.13 822.15 297.13 822.15L290.039 826.607Z" fill="white"/>
<path d="M278.122 834.479C278.122 834.479 285.348 838.8 288.597 843.99C291.851 849.181 298.14 847.489 294.87 840.065C291.596 832.636 285.541 829.553 285.541 829.553L278.122 834.479" fill="white"/>
<path d="M258.63 849.701C258.63 849.701 264.83 846.786 268.1 851.539C271.374 856.292 274.54 861.78 277.502 862.873C280.464 863.971 294.563 857.391 302.419 853.366C310.275 849.342 322.233 846.989 327.179 840.268C330.48 835.78 337.737 830.59 337.737 830.59C337.737 830.59 338.237 838.737 334.796 842.762C331.36 846.786 327.148 849.701 321.416 849.91C319.172 849.988 305.86 854.002 299.607 857.885C296.312 859.931 286.774 867.803 278.121 869.146C267.584 870.786 250.596 860.14 258.63 849.701" fill="#5F3DC4"/>
<path d="M312.821 809.983V803.033C312.821 803.033 317.897 800.956 324.998 805.183C328.986 807.563 333.286 813.461 333.286 813.461L331.75 818.324C331.75 818.324 323.67 824.295 312.821 809.983" fill="#5F3DC4"/>
<path d="M532.344 696.26C532.344 696.26 538.112 704.814 543.293 709.083C552.221 716.455 552.903 736.801 557.011 743.064C561.306 749.613 570.313 745.927 570.313 745.927C570.313 745.927 582.594 725.738 573.587 701.711C570.812 694.313 574.868 683.052 572.973 678.19C569.839 670.151 565.403 665.648 565.403 665.648C565.403 665.648 541.45 665.091 539.82 670.891C539.195 673.103 546.505 675.977 547.567 679.965C547.921 681.293 547.582 682.74 546.021 684.333C539.133 691.361 532.344 696.26 532.344 696.26" fill="#161413"/>
<path d="M561.317 665.424C561.317 665.424 565.81 671.901 567.954 676.748C569.652 680.59 568.652 688.149 569.287 694.349C570.125 702.534 573.322 711.92 573.791 713.998C574.504 717.137 573.994 730.782 570.105 737.332C568.381 740.237 558.032 739.789 557.011 743.064C555.986 746.338 562.92 747.166 567.855 747.223C575.633 747.317 580.6 729.142 578.528 715.226C576.451 701.305 572.286 697.468 573.843 692.127C575.399 686.785 579.392 682.375 574.853 674.238C570.313 666.101 570.75 665.247 561.317 665.424Z" fill="#5F3DC4"/>
<path d="M541.382 707.349C542.293 705.709 545.094 703.169 547.999 700.899C551.274 698.337 555.574 701.206 552.226 703.971C548.124 707.355 544.235 709.984 544.235 709.984L541.382 707.349" fill="white"/>
<path d="M546.827 713.274C546.827 713.274 551.815 710.52 554.616 708.88C557.416 707.245 560.899 710.91 556.906 713.274C552.913 715.638 549.04 717.59 549.04 717.59L546.827 713.274Z" fill="white"/>
<path d="M550.592 721.796C550.592 721.796 556.116 718.725 558.713 717.59C561.306 716.455 563.966 719.979 560.281 721.796C556.6 723.619 551.768 725.79 551.768 725.79L550.592 721.796Z" fill="white"/>
<path d="M536.384 701.711C536.384 701.711 528.892 698.681 527.633 696.5C526.378 694.313 526.919 690.388 532.344 688.529C537.769 686.67 546.021 684.333 546.021 684.333C546.021 684.333 544.823 696.786 536.384 701.711Z" fill="#5F3DC4"/>
<path d="M351.128 646.776C351.128 646.776 357.438 655.866 364.196 667.33C369.974 677.138 384.218 680.204 393.293 678.512C402.367 676.815 420.693 676.862 420.693 676.862L423.624 670.287C423.624 670.287 399.623 673.197 392.246 671.901C384.869 670.604 372.624 671.797 366.653 662.191C359.833 651.237 355.314 642.09 355.314 642.09L351.128 646.776" fill="#161413"/>
<path d="M418.308 516.684C424.509 525.712 419.729 538.102 417.413 542.2C415.096 546.292 406.36 558.521 406.36 558.521L426.18 565.039L423.624 573.614L396.536 562.941C396.536 562.941 399.196 551.685 407.995 542.2C414.987 534.661 414.513 522.005 410.421 521.188C406.329 520.365 402.19 530.392 402.19 530.392L393.292 525.894C393.292 525.894 406.36 499.285 418.308 516.684" fill="#161413"/>
<path d="M387.378 574.78C387.378 574.78 402.367 584.432 411.576 588.425C420.791 592.413 429.694 597.78 443.511 594.792C457.323 591.799 490.83 585.223 490.83 585.223L490.403 581.683C490.403 581.683 470.219 584.557 458.021 587.654C448.936 589.966 438.617 595.531 418.792 586.889C405.256 580.985 388.951 571.812 388.951 571.812L387.378 574.78" fill="#161413"/>
<path d="M476.695 500.816C476.695 500.816 469.604 499.42 464.69 499.249C459.78 499.077 458.021 511.764 458.021 511.764C458.021 511.764 464.508 511.91 469.401 508.599C475.685 504.346 476.695 500.816 476.695 500.816Z" fill="#C14A22"/>
<path d="M305.73 548.046C306.105 550.259 306.345 552.518 306.345 554.84C306.345 577.148 288.258 595.235 265.95 595.235C252.7 595.235 240.981 588.826 233.614 578.971C236.847 598.041 253.403 612.571 273.39 612.571C295.698 612.571 313.784 594.485 313.784 572.177C313.784 563.118 310.765 554.783 305.73 548.046" fill="#DB4F1E"/>
<path d="M265.95 595.235C288.258 595.235 306.344 577.148 306.344 554.84C306.344 552.518 306.105 550.259 305.73 548.046C298.363 538.191 286.639 531.782 273.389 531.782C251.081 531.782 233 549.868 233 572.177C233 574.499 233.24 576.758 233.614 578.971C240.981 588.826 252.7 595.235 265.95 595.235Z" fill="#F36118"/>
<path d="M250.67 538.784C250.67 538.784 272.223 557.589 281.537 578.533C290.851 599.478 293.553 607.079 293.553 607.079L294.948 606.334C294.948 606.334 290.284 589.43 279.283 569.527C269.553 551.909 251.727 538.087 251.727 538.087L250.67 538.784" fill="#161413"/>
<path d="M239.185 550.764C239.185 550.764 251.961 551.617 254.72 568.298C256.891 581.376 254.991 593.72 260.66 602.175C266.434 610.785 273.389 612.571 273.389 612.571L274.883 612.54C274.883 612.54 262.883 606.402 259.635 596.75C256.271 586.743 259.53 564.919 250.67 555.095C245.604 549.478 239.856 549.655 239.856 549.655L239.185 550.764Z" fill="#161413"/>
<path d="M265.861 532.511C265.861 532.511 267.002 544.553 277.445 547.406C281.667 548.561 292.543 547.359 298.296 553.336C308.864 564.305 310.478 588.175 310.478 588.175L311.478 585.655C311.478 585.655 311.478 569.834 302.924 557.042C295.458 545.875 289.487 547.114 279.387 545.99C270.214 544.964 267.002 532.376 267.002 532.376L265.861 532.511Z" fill="#161413"/>
<path d="M156.551 328.952C156.551 328.952 145.875 353.84 146.41 362.437C146.941 371.032 159.6 371.56 167.685 370.227C175.77 368.898 235.297 361.527 235.297 361.527L245.681 355.349L243.346 330.81L156.551 328.952Z" fill="#F68C83"/>
<path d="M235.297 361.528C235.297 361.528 242.369 364.907 243.705 370.782C244.567 374.584 245.262 379.04 250.287 379.84C255.316 380.641 258.058 371.348 257.719 361.528C257.376 351.704 264.772 343.568 259.993 337.982C256.62 334.044 243.346 330.81 243.346 330.81C243.346 330.81 244.576 345.932 241.303 351.204C239.884 353.488 235.297 361.528 235.297 361.528" fill="#FCC419"/>
<path d="M189.649 330.81C189.649 330.81 183.342 337.783 174.751 351.204C166.16 364.626 159.754 389.183 155.484 400.93C151.215 412.672 132.547 456.318 132.547 456.318L147.467 465.988C147.467 465.988 168.358 439.261 178.361 417.666C188.092 396.657 187.986 386.218 193.387 379.888C198.787 373.562 229.976 344.951 229.976 344.951C229.976 344.951 216.309 313.129 189.649 330.81Z" fill="#FABAAC"/>
<path d="M186.305 272.596C186.305 272.596 172.144 291.354 167.685 297.161C163.226 302.965 146.41 335.044 146.41 335.044C146.41 335.044 151.215 343.004 154.418 345.407C157.621 347.809 174.751 351.204 174.751 351.204L189.649 330.81C189.649 330.81 203.88 323.423 213.583 330.81C223.285 338.2 236.559 351.204 236.559 351.204C236.559 351.204 255.316 337.982 254.461 316.607C254.009 305.351 253.715 292.687 253.715 292.687L186.305 272.596Z" fill="#161413"/>
<path d="M104.469 255.997C104.469 255.997 90.7447 267.016 85.407 270.219C80.0681 273.423 81.5934 279.211 86.6172 284.441C89.5448 287.49 92.7544 286.853 95.5033 285.488C96.4931 284.995 97.4175 283.215 93.2899 281.527C91.0625 280.617 94.5385 275.072 95.1593 274.671C98.3624 272.595 102.593 273.016 100.765 274.671C95.1593 279.743 96.832 281.913 97.8281 281.527C100.206 280.603 108.177 277.718 108.505 276.273C109.039 273.922 112.776 269.778 112.776 269.778L104.469 255.997Z" fill="#F68C83"/>
<path d="M319.119 275.835C318.982 279.585 317.861 285.909 319.119 289.714C320.375 293.519 322.733 300.947 325.619 299.582C328.501 298.214 323.242 291.892 323.36 289.714C323.482 287.533 327.006 286.763 329.088 289.714C331.173 292.66 331.56 294.871 331.154 299.746C330.744 304.624 332.88 307.356 334.591 308.128C336.298 308.897 341 292.746 341 289.714C341 286.681 338.364 271.725 338.364 271.725L319.119 275.835" fill="#FABAAC"/>
<path d="M198.973 178.652C198.973 178.652 185.427 175.769 174.751 191.573C172.583 194.786 146.942 219.927 140.535 223.943C134.129 227.961 133.063 236.17 130.926 239.54C128.793 242.907 122.108 240.09 120.25 242.115C113.844 249.098 97.8282 261.165 97.8282 261.165L112.777 269.778C112.777 269.778 131.964 266.565 141.605 261.132C162.957 249.098 185.341 221.762 185.341 221.762C185.341 221.762 191.914 245.79 191.078 248.957C190.242 252.128 185.632 260.062 182.964 264.71C178.441 272.596 182.759 277.289 182.759 277.289L179.005 282.254C179.005 282.254 194.345 298.923 201.991 302.27C220.614 310.419 254.483 299.432 254.483 299.432C254.483 299.432 257.142 274.989 253.715 253.211C252.795 247.385 250.377 229.85 250.377 229.85C250.377 229.85 265.579 228.364 274.336 234.495C278.6 237.478 286.345 237.09 290.189 242.394C293.754 247.311 299.359 239.54 300.16 243.307C301.07 247.596 305.035 252.007 308.168 255.997C309.981 258.311 319.094 277.289 319.094 277.289L338.793 274.217C338.793 274.217 333.22 245.104 322.982 235.997C320.65 233.925 319.645 227.967 315.775 223.943C314.187 222.291 310.298 223.245 308.488 221.343C305.766 218.479 308.081 215.206 306.166 213.684C302.028 210.398 294.218 210.247 288.626 207.374C271.864 198.757 269.195 191.573 254.483 184.807C245.262 180.567 216.062 171.685 216.062 171.685L198.973 178.652" fill="#FCC419"/>
<path d="M203.349 186.941C203.349 186.941 204.902 203.303 206.276 204.046C212.99 207.672 226.52 198.895 232.644 186.941C224.262 178.591 216.062 171.685 216.062 171.685L203.349 186.941" fill="#F68C83"/>
<path d="M224.835 148.626C219.057 142.066 199.034 136.873 190.341 152.687C188.425 156.169 188.416 162.953 188.163 166.819C187.211 181.368 196.407 196.339 203.602 194.494C208.701 193.184 219.922 187.396 224.262 178.591C229.147 168.677 232.359 157.165 224.835 148.626Z" fill="#FABAAC"/>
<path d="M190.341 152.687C190.341 152.687 192.522 159.836 199.617 161.345C207.157 162.953 217.276 158.225 217.276 158.225C217.276 158.225 220.876 163.853 220.341 166.55C224.819 165.263 226.962 171.685 226.962 171.685C226.962 171.685 232.135 165.628 229.915 155.355C228.894 150.631 226.901 143.827 220.088 141.207C218.849 140.73 215.594 139.843 212.074 139.074C206.949 137.949 203.349 134 203.349 134C203.349 134 202.465 135.871 202.73 140.275C199.028 137.719 195.924 134.535 195.924 134.535C195.924 134.535 194.457 139.205 195.12 142.258C192.586 140.57 189.604 140.57 189.604 140.57C189.604 140.57 189.223 149.628 190.341 152.687" fill="#161413"/>
<path d="M121.65 446.392C121.65 446.392 129.071 440.709 135.538 441.305C142.005 441.901 146.791 447.106 148.879 453.913C150.968 460.719 152.015 475.534 140.916 485.201C134.773 490.55 121.65 446.392 121.65 446.392Z" fill="#FCC419"/>
<path d="M119.984 469.865C119.984 469.865 112.456 449.073 123.988 445.209C135.519 441.343 144.443 453.74 146.41 460.188C150.414 473.317 142.406 478.47 141.605 483.141C140.804 487.811 136.8 489.195 128.793 484.967C120.785 480.739 122.335 481.446 119.984 469.865" fill="#161413"/>
<path d="M245.681 377.8C245.681 377.8 251.312 376.637 252.113 373.034C252.545 371.079 250.511 358.084 252.113 355.349C253.715 352.614 260.204 348.446 260.377 344.715C260.55 340.982 259.993 337.982 259.993 337.982C259.993 337.982 267.728 341.002 262.924 349.868C260.64 354.078 257.719 359.632 257.719 361.527C257.719 363.42 260.07 378.239 254.49 382.643C248.91 387.047 245.681 377.8 245.681 377.8" fill="#161413"/>
<path d="M196.036 227.425V238.482C196.036 238.482 208.871 238.653 213.676 242.115C218.48 245.578 232.645 249.664 232.645 249.664V238.544C232.645 238.544 220.88 231.741 214.339 229.85C207.801 227.961 196.036 227.425 196.036 227.425" fill="white"/>
<path d="M261.604 198.757L255.089 210.875C255.089 210.875 266.527 215.148 271.864 217.282C277.203 219.417 279.871 221.019 279.871 221.019L284.676 209.888C284.676 209.888 269.496 199.449 261.604 198.757Z" fill="white"/>
<path d="M315.298 269.515C315.298 269.515 317.835 268.234 324.696 265.329C331.49 262.448 335.25 260.264 335.25 260.264L333.889 255.997C333.889 255.997 325.25 259.073 322.047 261.132C318.844 263.195 313.853 266.594 313.853 266.594L315.298 269.515" fill="#F08C00"/>
<path d="M182.759 277.289C182.759 277.289 190.985 284.816 196.59 291.223C202.196 297.629 206.34 300.031 216.478 299.095C226.616 298.161 242.235 295.627 242.235 295.627C242.235 295.627 237.85 292.956 229.976 292.155C222.1 291.354 211.805 295.227 208.736 293.356C205.668 291.488 194.457 280.277 189.783 278.811C185.113 277.34 182.759 277.289 182.759 277.289Z" fill="#F08C00"/>
<path d="M199.662 277.289C199.662 277.289 204.825 285.332 209.403 286.683C227.02 291.888 241.033 281.213 241.033 281.213C241.033 281.213 230.758 280.683 225.287 281.613C211.939 283.874 205.799 275.632 199.662 277.289Z" fill="#F08C00"/>
<path d="M104.469 255.997C104.469 255.997 111.708 260.183 113.844 262.756C115.98 265.329 118.158 268.733 118.158 268.733L120.874 268.134C120.874 268.134 118.914 262.125 115.711 259.191C112.509 256.253 107.929 253.204 107.929 253.204L104.469 255.997Z" fill="#F08C00"/>
<path d="M185.341 221.762C185.341 221.762 185.571 215.949 185.341 213.278C185.113 210.609 185.443 204.872 185.443 204.872C185.443 204.872 178.172 210.876 176.57 215.148C174.969 219.418 178.608 229.447 178.608 229.447L185.341 221.762" fill="#F08C00"/>
<path d="M250.377 229.85L248.449 214.613C248.449 214.613 242.235 220.218 241.033 223.421C239.832 226.625 240.082 237.993 251.969 241.25C251.312 235.997 250.377 229.85 250.377 229.85" fill="#F08C00"/>
<path d="M178.441 370.782C175.238 373.703 171.5 383.83 171.5 383.83C171.5 383.83 176.84 379.04 178.441 377.438C180.043 375.836 178.441 370.782 178.441 370.782Z" fill="#F68C83"/>
<path d="M246.264 301.68C246.069 301.729 247.257 315.511 245.681 319.782C244.105 324.055 224.899 340.319 224.899 340.319L227.164 342.364C227.164 342.364 239.807 333.202 245.681 325.463C251.553 317.722 250.777 314.445 250.777 309.372C250.777 304.3 250.777 300.518 250.777 300.518L246.264 301.68Z" fill="white"/>
<path d="M217.997 327.79L224.899 334.465C224.899 334.465 229.727 329.925 232.645 326.722C235.563 323.519 237.856 321.441 237.856 321.441L231.274 316.71L217.997 327.79Z" fill="white"/>
<path d="M98.8941 394.612C99.1254 395.977 99.273 397.374 99.273 398.805C99.273 412.576 88.1111 423.738 74.3399 423.738C66.162 423.738 58.9261 419.787 54.3793 413.704C56.3774 425.471 66.595 434.444 78.9332 434.444C92.704 434.444 103.866 423.28 103.866 409.511C103.866 403.918 102.003 398.77 98.8941 394.612" fill="#161413"/>
<path d="M74.3399 423.738C88.1111 423.738 99.273 412.576 99.273 398.805C99.273 397.374 99.1254 395.978 98.8941 394.612C94.3469 388.53 87.1114 384.574 78.9332 384.574C65.1635 384.574 54 395.737 54 409.511C54 410.942 54.1477 412.336 54.3793 413.704C58.9261 419.787 66.162 423.738 74.3399 423.738" fill="white"/>
<path d="M99.2729 411.071C98.1531 406.221 96.7607 394.612 89.5536 390.83C82.3466 387.047 77.1415 402.342 75.1396 409.511C73.1376 416.676 75.1396 429.358 75.1396 429.358L65.9306 425.824C65.9306 425.824 62.9087 410.86 73.1376 397.858C79.1233 390.251 85.1942 384.427 89.3608 386.89C93.5274 389.353 102.734 402.153 102.734 402.153L99.2729 411.071" fill="#161413"/>
<path d="M55.8055 400.218C55.8055 400.218 63.1279 397.458 68.7333 392.653C74.3388 387.848 76.637 384.68 76.637 384.68C76.637 384.68 70.3785 384.916 65.5139 388.511C57.2546 394.612 55.8055 400.218 55.8055 400.218Z" fill="#161413"/>
<path d="M635.554 512.056C632.166 526.339 640.317 533.269 653.074 534.712C662.619 535.79 720.184 542.906 720.184 542.906C720.184 542.906 730.735 536.155 724.971 530.48C721.925 528.134 690.203 517.205 678.01 511.586C665.813 505.968 648.97 502.054 648.97 502.054C648.97 502.054 638.542 499.464 635.554 512.056" fill="#C72949"/>
<path d="M711.179 545.84C711.179 545.84 717.318 554.687 722.081 562.685C725.353 568.182 728.885 571.606 731.319 577.177C733.415 581.984 738.452 576.832 742.005 570.508C743.783 567.347 744.253 562.205 744.043 558.544C743.736 553.24 741.099 551.908 736.427 543.991C734.21 540.236 733.216 534.077 731.83 529.932C730.295 525.345 725.948 521.707 725.948 521.707C725.948 521.707 713.264 517.614 711.889 521.87C710.969 524.719 720.252 526.481 718.835 530.899C717.145 536.169 710.841 541.858 711.179 545.84" fill="#161413"/>
<path d="M711.493 543.809C714.011 548.704 717.902 552.456 720.796 556.208C723.69 559.961 726.627 557.06 723.869 552.72C720.776 547.855 713.812 539.499 713.812 539.499C713.812 539.499 711.402 542.588 711.493 543.809" fill="white"/>
<path d="M732.922 578.928C732.922 578.928 733.223 574.709 736.792 572.603C740.362 570.494 742.16 567.668 742.894 561.806C743.628 555.941 738.611 551.151 735.613 544.056C732.614 536.96 732.083 530.767 730.85 527.958C729.244 524.293 723.274 520.967 723.274 520.967C723.274 520.967 726.12 520.467 727.679 520.994C730.447 521.934 732.462 524.658 733.287 526.2C734.412 528.303 735.626 530.27 736.001 534.796C736.191 537.112 737.712 542.45 738.898 544.826C740.085 547.206 746.362 552.78 746.227 559.923C746.095 567.066 743.509 574.527 738.969 577.63C734.426 580.733 732.922 578.928 732.922 578.928" fill="#FF3860"/>
<path d="M741.231 560.373C741.231 560.373 727.493 555.732 727.195 543.238C726.823 527.654 719.092 520.149 719.092 520.149L723.274 520.967C723.274 520.967 729.325 525.49 730.366 535.023C730.985 540.685 731.073 544.536 732.901 549.701C734.325 553.737 741.231 560.373 741.231 560.373Z" fill="#FF3860"/>
<path d="M621.603 191.81C612.69 203.506 629.804 225.307 632.381 239.968C634.343 251.143 646.061 280.705 648.705 289.413C653.131 304 656.336 309.72 661.807 318.123C671.141 332.467 680.711 339.38 680.711 339.38C680.711 339.38 686.684 309.662 682.992 307.999C679.304 306.339 640.13 240.65 640.259 226.128C640.388 211.609 633.974 175.57 621.603 191.81" fill="#F68C83"/>
<path d="M695.517 297.567L688.509 308.952C688.509 308.952 692.877 317.61 701.778 316.18C710.682 314.75 716.107 307.779 716.107 307.779L715.644 291.884L695.517 297.567" fill="#F68C83"/>
<path d="M696.23 256.613C684.554 262.887 677.946 295.464 690.132 301.667C698.036 305.69 712.125 302.053 721.04 288.859C728.514 277.801 718.328 244.737 696.23 256.613" fill="#FABAAC"/>
<path d="M689.784 262.846C689.784 262.846 699.398 272.136 713.119 274.34C714.387 276.801 714.045 279.786 714.204 282.919C722.818 280.668 721.039 288.859 715.644 291.884C713.863 293.487 714.448 297.006 714.448 297.006C714.448 297.006 726.404 291.323 728.825 277.852C731.242 264.381 723.548 250.136 702.809 252.6C694.557 253.58 689.784 262.846 689.784 262.846" fill="#161413"/>
<path d="M725.779 267.133C725.779 267.133 736.066 269.695 736.961 279.894C737.854 290.093 734.484 294.978 734.484 294.978C734.484 294.978 722.723 288.342 723.666 279.992C724.613 271.646 725.779 267.133 725.779 267.133Z" fill="#161413"/>
<path d="M733.378 289.156C733.378 289.156 728.757 298.165 730.785 304.936C732.814 311.707 737.107 311.657 737.107 311.657C737.107 311.657 739.101 304.723 738.926 300.569C738.753 296.411 733.378 289.156 733.378 289.156" fill="#161413"/>
<path d="M735.825 308.8C735.825 308.8 733.074 318.543 736.397 324.783C739.72 331.02 743.915 330.124 743.915 330.124C743.915 330.124 744.506 322.934 743.516 318.894C742.525 314.855 735.825 308.8 735.825 308.8" fill="#161413"/>
<path d="M740.721 326.534C740.721 326.534 740.007 335.266 742.215 340.482C744.425 345.698 748.881 349.856 748.881 349.856C748.881 349.856 753.465 349.751 754.665 347.665C755.865 345.579 755.304 343.774 755.304 343.774C755.304 343.774 748.462 329.803 740.721 326.534Z" fill="#161413"/>
<path d="M661.45 435.394C661.45 435.394 655.109 455.143 648.771 470.964C641.758 488.467 632.533 512.195 632.533 512.195C632.533 512.195 629.15 533.85 656.377 523.996C666.53 520.321 671.563 497.037 676.881 487.565C681.309 479.675 698.002 445.668 698.002 445.668L661.45 435.394Z" fill="#F68C83"/>
<path d="M689.835 436.892C688.847 439.569 680.336 520.852 678.459 531.615C676.58 542.379 681.191 553.159 681.191 553.159C681.191 553.159 702.444 563.236 705.182 557.939C707.92 552.642 707.589 551.499 707.589 551.499C707.589 551.499 711.899 522.221 717.446 495.915C721.029 478.938 729.47 465.906 729.528 459.156C729.683 441.283 689.835 436.892 689.835 436.892" fill="#FABAAC"/>
<path d="M668.933 406.11L658.195 444.792C658.195 444.792 660.709 447.223 669.038 452.882C676.762 458.135 686.63 460.481 686.63 460.481C686.63 460.481 687.069 469.442 700.733 473.502C714.397 477.566 724.224 475.22 724.224 475.22C724.224 475.22 737.722 453.027 725.13 419.04C718.261 400.505 668.933 406.11 668.933 406.11" fill="#161413"/>
<path d="M683.824 305.778C683.824 305.778 672.507 325.878 669.937 334.917C667.368 343.957 670.543 356.688 670.543 356.688C670.543 356.688 675.535 387.876 674.166 391.155C672.797 394.43 668.933 406.11 668.933 406.11C668.933 406.11 683.108 423.935 706.169 423.928C717.142 423.928 725.13 419.04 725.13 419.04C725.13 419.04 717.345 403.507 718.051 396.78C718.758 390.053 730.228 348.689 729.291 333.559C728.355 318.428 716.108 307.779 716.108 307.779C716.108 307.779 703.086 318.529 697.593 312.877C692.103 307.221 683.824 305.778 683.824 305.778" fill="#FF3860"/>
<path d="M680.518 323.64C680.454 323.776 674.055 328.694 674.055 328.694L674.592 331.659L680.139 327.707C680.139 327.707 676.867 338.011 675.924 343.582C674.981 349.153 675.099 352.418 675.099 352.418L678.273 353.277C678.273 353.277 679.436 340.796 680.941 335.279C682.445 329.759 684.196 324.57 684.196 324.57L680.518 323.64" fill="#161413"/>
<path d="M648.581 207.897C639.204 191.299 631.147 209.75 635.571 224.529C636.527 227.724 639.976 237.692 642.31 249.561C643.44 255.308 652.113 280.776 664.985 303.219C674.048 319.019 684.362 330.739 697.63 341.442C701.784 357.847 711.355 357.607 718.639 353.939C727.628 349.416 725.64 331.28 721.452 324.093C713.957 311.241 697.099 309.25 692.928 301.999C675.671 272.007 656.77 249.751 656.657 245.542C656.416 236.672 659.197 226.693 648.581 207.897Z" fill="#FABAAC"/>
<path d="M679.017 545.938C679.359 562.567 695.112 571.315 712.179 592.152C717.044 598.092 732.847 625.964 732.847 625.964L745.338 615.86C745.338 615.86 733.361 577.015 723.122 561.292C718.416 554.062 708.917 542.906 708.917 542.906C708.917 542.906 684.95 548.95 679.017 545.938" fill="#FF3860"/>
<path d="M721.209 614.656C721.209 614.656 717.767 624.858 714.187 633.451C711.723 639.357 711.081 644.235 708.055 649.509C705.449 654.059 712.588 655.029 719.782 654.113C723.382 653.656 727.79 650.969 730.603 648.616C734.68 645.209 734.176 642.295 737.746 633.827C739.443 629.807 743.793 625.338 746.295 621.752C749.063 617.786 749.388 612.128 749.388 612.128C749.388 612.128 745.115 599.505 740.879 600.935C738.043 601.895 742.164 610.397 737.773 611.894C732.533 613.683 724.207 612.009 721.209 614.656Z" fill="#161413"/>
<path d="M723.027 613.696C720.6 618.638 719.91 624 718.622 628.56C717.334 633.12 721.411 633.749 723.254 628.949C725.316 623.564 727.871 612.993 727.871 612.993C727.871 612.993 723.953 612.898 723.027 613.696" fill="white"/>
<path d="M707.606 651.838C707.606 651.838 711.172 649.566 714.995 651.175C718.815 652.784 722.158 652.544 727.3 649.637C732.445 646.73 733.304 639.847 737.212 633.211C741.119 626.572 745.774 622.455 747.295 619.791C749.28 616.316 748.391 609.538 748.391 609.538C748.391 609.538 750.493 611.526 750.997 613.094C751.893 615.876 750.906 619.118 750.159 620.7C749.141 622.854 748.286 625.004 744.875 628.002C743.131 629.533 739.75 633.935 738.55 636.308C737.347 638.678 736.613 647.041 730.799 651.192C724.984 655.343 717.456 657.716 712.257 655.921C707.058 654.123 707.606 651.838 707.606 651.838" fill="#FF3860"/>
<path d="M727.459 647.45C727.459 647.45 722.993 633.651 732.847 625.964C745.139 616.377 746.555 605.694 746.555 605.694L748.391 609.538C748.391 609.538 748.367 617.093 741.336 623.611C737.154 627.485 734.118 629.851 731.059 634.398C728.672 637.947 727.459 647.45 727.459 647.45Z" fill="#FF3860"/>
<path d="M635.25 530.361C639.004 535.608 653.074 534.712 653.074 534.712C653.074 534.712 664.745 530.02 667.913 521.146C671.083 512.273 669.103 506.901 669.103 506.901C669.103 506.901 662.463 516.917 654.57 518.956C641.328 522.373 633.652 509.511 633.652 509.511C633.652 509.511 627.784 519.936 635.25 530.361" fill="#161413"/>
<path d="M678.01 535.006C678.01 535.006 671.729 545.124 674.768 553.592C678.165 563.074 685.836 564.223 685.836 564.223C685.836 564.223 695.027 559.491 701.281 553.561C706.51 548.599 708.995 542.179 708.917 542.906L678.01 535.006" fill="#161413"/>
<path d="M642.296 250.362L648.682 268.698C648.682 268.698 652.649 272.819 658.474 269.347C664.103 265.993 664.985 260.152 664.985 260.152L657.218 247.364C657.218 247.364 649.712 254.899 642.296 250.362Z" fill="#161413"/>
<path d="M670.982 400.025C670.982 400.025 683.854 412.928 697.4 415.037C710.945 417.15 722.75 413.875 722.75 413.875L721.401 410.558C721.401 410.558 710.411 412.593 697.724 411.542C685.038 410.494 671.867 397.446 671.867 397.446L670.982 400.025Z" fill="#161413"/>
<path d="M709.766 412.441C709.336 408.841 707.991 394.954 710.56 379.627C713.552 361.799 714.224 355.863 714.224 355.863L711.72 356.089C711.72 356.089 709.658 370.206 708.261 379.127C706.886 387.913 706.412 402.124 707.859 412.668C708.471 412.512 709.11 412.428 709.766 412.441" fill="#161413"/>
<path d="M678.01 376.511C678.01 376.511 681.914 393.676 688.51 398.734C695.105 403.794 703.549 405.775 703.549 405.775C703.549 405.775 695.859 396.749 692.62 394.038C684.541 387.277 678.01 376.511 678.01 376.511Z" fill="#C72949"/>
<path d="M675.742 359.162C675.742 359.162 680.488 369.439 689.784 381.52C694.851 388.109 701.281 391.368 701.281 391.368C701.281 391.368 697.096 379.719 694.347 376.511C685.808 366.538 675.742 359.162 675.742 359.162Z" fill="#C72949"/>
<path d="M629.732 139.616C629.843 141.073 629.861 142.553 629.721 144.061C628.373 158.529 615.551 169.167 601.081 167.819C592.488 167.021 585.271 162.156 581.088 155.321C582.036 167.883 591.895 178.308 604.86 179.515C619.33 180.864 632.154 170.226 633.501 155.754C634.047 149.879 632.594 144.291 629.732 139.616" fill="#3D58B0"/>
<path d="M601.081 167.819C615.551 169.167 628.373 158.529 629.721 144.061C629.861 142.553 629.843 141.073 629.732 139.616C625.55 132.78 618.333 127.916 609.74 127.115C595.27 125.769 582.447 136.408 581.099 150.876C580.96 152.38 580.978 153.861 581.088 155.321C585.271 162.156 592.488 167.021 601.081 167.819" fill="#5285CD"/>
<path d="M592.226 165.375C592.226 165.375 597.526 147.164 608.717 140.244C619.908 133.328 627.411 136.353 629.732 139.616C632.19 143.07 633.2 148.723 633.2 148.723C633.2 148.723 627.104 172.281 608.851 170.621C596.014 169.455 592.226 165.375 592.226 165.375" fill="#FABD09"/>
<defs>
<linearGradient id="paint0_linear" x1="25.5" y1="1.07773e-05" x2="879" y2="552.5" gradientUnits="userSpaceOnUse">
<stop stop-color="#5F3DC4"/>
<stop offset="0.515625" stop-color="#FF3860"/>
<stop offset="1" stop-color="#FCC419"/>
</linearGradient>
</defs>
</svg>
