<svg width="1440" height="512" viewBox="0 0 1440 512" fill="none" xmlns="http://www.w3.org/2000/svg">
<g clip-path="url(#clip0)">
<rect width="1440" height="512" fill="white"/>
<rect y="-3.05176e-05" width="1440" height="1024" fill="url(#paint0_linear)"/>
<path d="M-140.815 1023.31L-397 767.13L701.06 -330.929L957.244 -74.7446L-140.815 1023.31Z" fill="url(#paint1_linear)"/>
<path d="M536.185 1380.24L280 1124.06L1378.06 26L1634.24 282.185L536.185 1380.24Z" fill="url(#paint2_linear)"/>
<rect x="841.536" y="147.668" width="5" height="300" transform="rotate(-135 841.536 147.668)" fill="url(#paint3_linear)"/>
<rect x="694.536" y="579.668" width="5" height="300" transform="rotate(-135 694.536 579.668)" fill="url(#paint4_linear)"/>
<rect x="179.132" y="38" width="5" height="300" transform="rotate(45 179.132 38)" fill="url(#paint5_linear)"/>
</g>
<defs>
<linearGradient id="paint0_linear" x1="1440" y1="-9.08673e-05" x2="-9.48376e-05" y2="1024" gradientUnits="userSpaceOnUse">
<stop offset="0.109375" stop-color="#38D9C0"/>
<stop offset="0.90625" stop-color="#5F3DC4"/>
</linearGradient>
<linearGradient id="paint1_linear" x1="-268.907" y1="895.222" x2="829.152" y2="-202.837" gradientUnits="userSpaceOnUse">
<stop stop-color="#5F3DC4"/>
<stop offset="1" stop-color="#38D9C0"/>
</linearGradient>
<linearGradient id="paint2_linear" x1="408.093" y1="1252.15" x2="1506.15" y2="154.092" gradientUnits="userSpaceOnUse">
<stop stop-color="#5F3DC4"/>
<stop offset="1" stop-color="#38D9C0"/>
</linearGradient>
<linearGradient id="paint3_linear" x1="844.036" y1="147.668" x2="844.036" y2="447.668" gradientUnits="userSpaceOnUse">
<stop stop-color="#5F3DC4"/>
<stop offset="1" stop-color="#38D9C0"/>
</linearGradient>
<linearGradient id="paint4_linear" x1="697.036" y1="579.668" x2="697.036" y2="879.668" gradientUnits="userSpaceOnUse">
<stop stop-color="#5F3DC4"/>
<stop offset="1" stop-color="#38D9C0"/>
</linearGradient>
<linearGradient id="paint5_linear" x1="181.632" y1="38" x2="181.632" y2="338" gradientUnits="userSpaceOnUse">
<stop stop-color="#5F3DC4"/>
<stop offset="1" stop-color="#38D9C0"/>
</linearGradient>
<clipPath id="clip0">
<rect width="1440" height="512" fill="white"/>
</clipPath>
</defs>
</svg>
