<svg width="278" height="278" viewBox="0 0 278 278" fill="none" xmlns="http://www.w3.org/2000/svg">
<rect width="278" height="278" rx="25" fill="white"/>
<path d="M48.112 230.472C48.112 226.035 49.072 222.088 50.992 218.632C52.912 215.133 55.5787 212.424 58.992 210.504C62.448 208.541 66.352 207.56 70.704 207.56C76.0373 207.56 80.6027 208.968 84.4 211.784C88.1973 214.6 90.736 218.44 92.016 223.304H79.984C79.088 221.427 77.808 219.997 76.144 219.016C74.5227 218.035 72.6667 217.544 70.576 217.544C67.2053 217.544 64.4747 218.717 62.384 221.064C60.2933 223.411 59.248 226.547 59.248 230.472C59.248 234.397 60.2933 237.533 62.384 239.88C64.4747 242.227 67.2053 243.4 70.576 243.4C72.6667 243.4 74.5227 242.909 76.144 241.928C77.808 240.947 79.088 239.517 79.984 237.64H92.016C90.736 242.504 88.1973 246.344 84.4 249.16C80.6027 251.933 76.0373 253.32 70.704 253.32C66.352 253.32 62.448 252.36 58.992 250.44C55.5787 248.477 52.912 245.768 50.992 242.312C49.072 238.856 48.112 234.909 48.112 230.472ZM119.966 253.448C115.742 253.448 111.859 252.467 108.318 250.504C104.819 248.541 102.025 245.811 99.934 242.312C97.886 238.771 96.862 234.803 96.862 230.408C96.862 226.013 97.886 222.067 99.934 218.568C102.025 215.069 104.819 212.339 108.318 210.376C111.859 208.413 115.742 207.432 119.966 207.432C124.19 207.432 128.051 208.413 131.55 210.376C135.091 212.339 137.865 215.069 139.87 218.568C141.918 222.067 142.942 226.013 142.942 230.408C142.942 234.803 141.918 238.771 139.87 242.312C137.822 245.811 135.049 248.541 131.55 250.504C128.051 252.467 124.19 253.448 119.966 253.448ZM119.966 243.464C123.55 243.464 126.409 242.269 128.542 239.88C130.718 237.491 131.806 234.333 131.806 230.408C131.806 226.44 130.718 223.283 128.542 220.936C126.409 218.547 123.55 217.352 119.966 217.352C116.339 217.352 113.438 218.525 111.262 220.872C109.129 223.219 108.062 226.397 108.062 230.408C108.062 234.376 109.129 237.555 111.262 239.944C113.438 242.291 116.339 243.464 119.966 243.464ZM183.271 222.536C183.271 225.139 182.673 227.528 181.479 229.704C180.284 231.837 178.449 233.565 175.975 234.888C173.5 236.211 170.428 236.872 166.759 236.872H159.975V253H149.031V208.072H166.759C170.343 208.072 173.372 208.691 175.847 209.928C178.321 211.165 180.177 212.872 181.415 215.048C182.652 217.224 183.271 219.72 183.271 222.536ZM165.927 228.168C168.017 228.168 169.575 227.677 170.599 226.696C171.623 225.715 172.135 224.328 172.135 222.536C172.135 220.744 171.623 219.357 170.599 218.376C169.575 217.395 168.017 216.904 165.927 216.904H159.975V228.168H165.927ZM216.936 245.064H200.168L197.48 253H186.024L202.28 208.072H214.952L231.208 253H219.624L216.936 245.064ZM214.12 236.616L208.552 220.168L203.048 236.616H214.12Z" fill="#222222"/>
<g filter="url(#filter0_i)">
<path d="M225.208 47.6264H191.444V34.7358C191.347 26.7035 192.667 27.0014 183.653 27.0014H95.3472C86.3333 27.0014 87.5556 27.1949 87.5556 34.7358V47.6264H53.7917C49.4738 47.6264 46 51.0747 46 55.3608V73.4077C46 84.9126 53.3047 96.7397 66.096 105.86C76.3226 113.175 88.7568 117.816 101.808 119.298C112.002 136.088 123.917 143.017 123.917 143.017V166.22H108.333C96.8731 166.22 87.5556 172.891 87.5556 184.267V188.134C87.5556 190.261 89.3087 192.001 91.4514 192.001H187.549C189.691 192.001 191.444 190.261 191.444 188.134V184.267C191.444 172.891 182.127 166.22 170.667 166.22H155.083V143.017C155.083 143.017 166.998 136.088 177.192 119.298C190.276 117.816 202.71 113.175 212.904 105.86C225.663 96.7397 233 84.9126 233 73.4077V55.3608C233 51.0747 229.526 47.6264 225.208 47.6264ZM78.238 89.1342C70.3165 83.4624 66.7778 77.146 66.7778 73.4077V68.2514H87.6205C87.9451 78.7573 89.5035 87.9741 91.776 96.0307C86.8738 94.3549 82.2962 92.0346 78.238 89.1342ZM212.222 73.4077C212.222 78.5961 206.476 85.0415 200.762 89.1342C196.704 92.0346 192.094 94.3549 187.191 96.0307C189.464 87.9741 191.022 78.7573 191.347 68.2514H212.222V73.4077Z" fill="url(#paint0_linear)"/>
</g>
<defs>
<filter id="filter0_i" x="46" y="27" width="187" height="169.001" filterUnits="userSpaceOnUse" color-interpolation-filters="sRGB">
<feFlood flood-opacity="0" result="BackgroundImageFix"/>
<feBlend mode="normal" in="SourceGraphic" in2="BackgroundImageFix" result="shape"/>
<feColorMatrix in="SourceAlpha" type="matrix" values="0 0 0 0 0 0 0 0 0 0 0 0 0 0 0 0 0 0 127 0" result="hardAlpha"/>
<feOffset dy="4"/>
<feGaussianBlur stdDeviation="2"/>
<feComposite in2="hardAlpha" operator="arithmetic" k2="-1" k3="1"/>
<feColorMatrix type="matrix" values="0 0 0 0 0 0 0 0 0 0 0 0 0 0 0 0 0 0 0.25 0"/>
<feBlend mode="normal" in2="shape" result="effect1_innerShadow"/>
</filter>
<linearGradient id="paint0_linear" x1="139.5" y1="27.0013" x2="139.5" y2="192.001" gradientUnits="userSpaceOnUse">
<stop stop-color="#38D9C0"/>
<stop offset="1" stop-color="#5F3DC4"/>
</linearGradient>
</defs>
</svg>
