<?xml version="1.0" encoding="UTF-8"?>
<svg width="745px" height="150px" viewBox="0 0 745 150" version="1.1" xmlns="http://www.w3.org/2000/svg" xmlns:xlink="http://www.w3.org/1999/xlink">
    <!-- Generator: Sketch 52.3 (67297) - http://www.bohemiancoding.com/sketch -->
    <title>logo</title>
    <desc>Created with Sketch.</desc>
    <defs>
        <rect id="path-1" x="0" y="0" width="745" height="152"></rect>
        <linearGradient x1="50%" y1="0%" x2="50%" y2="81.4066015%" id="linearGradient-3">
            <stop stop-color="#5C7CFA" offset="0%"></stop>
            <stop stop-color="#141E52" offset="100%"></stop>
        </linearGradient>
        <linearGradient x1="50%" y1="0%" x2="50%" y2="100%" id="linearGradient-4">
            <stop stop-color="#FCC419" offset="0%"></stop>
            <stop stop-color="#E67700" offset="100%"></stop>
        </linearGradient>
    </defs>
    <g id="Page-1" stroke="none" stroke-width="1" fill="none" fill-rule="evenodd">
        <g id="logo" transform="translate(0.000000, -1.000000)">
            <g id="COPA">
                <mask id="mask-2" fill="white">
                    <use xlink:href="#path-1"></use>
                </mask>
                <g id="Mask"></g>
                <text fill="url(#linearGradient-3)" mask="url(#mask-2)" font-family="Lato-Black, Lato" font-size="200" font-weight="700">
                    <tspan x="195" y="149">COPA</tspan>
                </text>
            </g>
            <g id="trophy-solid" transform="translate(0.000000, 4.000000)" fill="url(#linearGradient-4)" fill-rule="nonzero">
                <path d="M157.166667,18.125 L127.555556,18.125 L127.555556,6.796875 C127.555556,3.03027344 124.509028,0 120.722222,0 L43.2777778,0 C39.4909722,0 36.4444444,3.03027344 36.4444444,6.796875 L36.4444444,18.125 L6.83333333,18.125 C3.04652778,18.125 0,21.1552734 0,24.921875 L0,40.78125 C0,50.8916016 6.40625,61.2851562 17.6243056,69.2998047 C26.5930556,75.7285156 37.4979167,79.8066406 48.94375,81.109375 C57.8840278,95.8642578 68.3333333,101.953125 68.3333333,101.953125 L68.3333333,122.34375 L54.6666667,122.34375 C44.6159722,122.34375 36.4444444,128.206055 36.4444444,138.203125 L36.4444444,141.601562 C36.4444444,143.470703 37.9819444,145 39.8611111,145 L124.138889,145 C126.018056,145 127.555556,143.470703 127.555556,141.601562 L127.555556,138.203125 C127.555556,128.206055 119.384028,122.34375 109.333333,122.34375 L95.6666667,122.34375 L95.6666667,101.953125 C95.6666667,101.953125 106.115972,95.8642578 115.05625,81.109375 C126.530556,79.8066406 137.435417,75.7285156 146.375694,69.2998047 C157.565278,61.2851562 164,50.8916016 164,40.78125 L164,24.921875 C164,21.1552734 160.953472,18.125 157.166667,18.125 Z M28.2729167,54.6015625 C21.3256944,49.6171875 18.2222222,44.0664062 18.2222222,40.78125 L18.2222222,36.25 L36.5013889,36.25 C36.7861111,45.4824219 38.1527778,53.5820313 40.1458333,60.6621094 C35.8465278,59.1894531 31.8319444,57.1503906 28.2729167,54.6015625 Z M145.777778,40.78125 C145.777778,45.3408203 140.738194,51.0048828 135.727083,54.6015625 C132.168056,57.1503906 128.125,59.1894531 123.825694,60.6621094 C125.81875,53.5820313 127.185417,45.4824219 127.470139,36.25 L145.777778,36.25 L145.777778,40.78125 Z" id="Shape"></path>
            </g>
        </g>
    </g>
</svg>