<svg width="238" height="49" viewBox="0 0 238 49" fill="none" xmlns="http://www.w3.org/2000/svg">
<path d="M53.112 24.472C53.112 20.0347 54.072 16.088 55.992 12.632C57.912 9.13333 60.5787 6.424 63.992 4.504C67.448 2.54133 71.352 1.56 75.704 1.56C81.0373 1.56 85.6027 2.968 89.4 5.784C93.1973 8.6 95.736 12.44 97.016 17.304H84.984C84.088 15.4267 82.808 13.9973 81.144 13.016C79.5227 12.0347 77.6667 11.544 75.576 11.544C72.2053 11.544 69.4747 12.7173 67.384 15.064C65.2933 17.4107 64.248 20.5467 64.248 24.472C64.248 28.3973 65.2933 31.5333 67.384 33.88C69.4747 36.2267 72.2053 37.4 75.576 37.4C77.6667 37.4 79.5227 36.9093 81.144 35.928C82.808 34.9467 84.088 33.5173 84.984 31.64H97.016C95.736 36.504 93.1973 40.344 89.4 43.16C85.6027 45.9333 81.0373 47.32 75.704 47.32C71.352 47.32 67.448 46.36 63.992 44.44C60.5787 42.4773 57.912 39.768 55.992 36.312C54.072 32.856 53.112 28.9093 53.112 24.472ZM124.966 47.448C120.742 47.448 116.859 46.4667 113.318 44.504C109.819 42.5413 107.025 39.8107 104.934 36.312C102.886 32.7707 101.862 28.8027 101.862 24.408C101.862 20.0133 102.886 16.0667 104.934 12.568C107.025 9.06933 109.819 6.33867 113.318 4.376C116.859 2.41333 120.742 1.432 124.966 1.432C129.19 1.432 133.051 2.41333 136.55 4.376C140.091 6.33867 142.865 9.06933 144.87 12.568C146.918 16.0667 147.942 20.0133 147.942 24.408C147.942 28.8027 146.918 32.7707 144.87 36.312C142.822 39.8107 140.049 42.5413 136.55 44.504C133.051 46.4667 129.19 47.448 124.966 47.448ZM124.966 37.464C128.55 37.464 131.409 36.2693 133.542 33.88C135.718 31.4907 136.806 28.3333 136.806 24.408C136.806 20.44 135.718 17.2827 133.542 14.936C131.409 12.5467 128.55 11.352 124.966 11.352C121.339 11.352 118.438 12.5253 116.262 14.872C114.129 17.2187 113.062 20.3973 113.062 24.408C113.062 28.376 114.129 31.5547 116.262 33.944C118.438 36.2907 121.339 37.464 124.966 37.464ZM188.271 16.536C188.271 19.1387 187.673 21.528 186.479 23.704C185.284 25.8373 183.449 27.5653 180.975 28.888C178.5 30.2107 175.428 30.872 171.759 30.872H164.975V47H154.031V2.072H171.759C175.343 2.072 178.372 2.69066 180.847 3.928C183.321 5.16533 185.177 6.872 186.415 9.048C187.652 11.224 188.271 13.72 188.271 16.536ZM170.927 22.168C173.017 22.168 174.575 21.6773 175.599 20.696C176.623 19.7147 177.135 18.328 177.135 16.536C177.135 14.744 176.623 13.3573 175.599 12.376C174.575 11.3947 173.017 10.904 170.927 10.904H164.975V22.168H170.927ZM221.936 39.064H205.168L202.48 47H191.024L207.28 2.072H219.952L236.208 47H224.624L221.936 39.064ZM219.12 30.616L213.552 14.168L208.048 30.616H219.12Z" fill="#222222"/>
<path d="M48.875 7.62539H39.6667V4.10976C39.6401 1.91913 40 2.00039 37.5417 2.00039H13.4583C11 2.00039 11.3333 2.05315 11.3333 4.10976V7.62539H2.125C0.947396 7.62539 0 8.56582 0 9.73476V14.6566C0 17.7943 1.99219 21.0199 5.48073 23.5072C8.26979 25.5023 11.6609 26.768 15.2203 27.1723C18.0005 31.7514 21.25 33.641 21.25 33.641V39.9691H17C13.8745 39.9691 11.3333 41.7885 11.3333 44.891V45.9457C11.3333 46.5258 11.8115 47.0004 12.3958 47.0004H38.6042C39.1885 47.0004 39.6667 46.5258 39.6667 45.9457V44.891C39.6667 41.7885 37.1255 39.9691 34 39.9691H29.75V33.641C29.75 33.641 32.9995 31.7514 35.7797 27.1723C39.3479 26.768 42.7391 25.5023 45.5193 23.5072C48.999 21.0199 51 17.7943 51 14.6566V9.73476C51 8.56582 50.0526 7.62539 48.875 7.62539ZM8.79219 18.9457C6.63177 17.3988 5.66667 15.6762 5.66667 14.6566V13.2504H11.351C11.4396 16.1156 11.8646 18.6293 12.4844 20.8266C11.1474 20.3695 9.89896 19.7367 8.79219 18.9457ZM45.3333 14.6566C45.3333 16.0717 43.7661 17.8295 42.2078 18.9457C41.101 19.7367 39.8438 20.3695 38.5068 20.8266C39.1266 18.6293 39.5516 16.1156 39.6401 13.2504H45.3333V14.6566Z" fill="url(#paint0_linear)"/>
<defs>
<linearGradient id="paint0_linear" x1="25.5" y1="2.00037" x2="25.5" y2="47.0004" gradientUnits="userSpaceOnUse">
<stop stop-color="#38D9C0"/>
<stop offset="1" stop-color="#5F3DC4"/>
</linearGradient>
</defs>
</svg>
