<svg width="760" height="595" viewBox="0 0 760 595" fill="none" xmlns="http://www.w3.org/2000/svg">
<path d="M350.27 439H380V595H311.5H220.5L236 564H246L251.5 555L334 543L350.27 439Z" fill="#FFD43B"/>
<path d="M323 423H380V485L323 475.576V423Z" fill="#F08C00"/>
<path fill-rule="evenodd" clip-rule="evenodd" d="M286.455 389.352C326.847 351.686 319.896 278.585 270.931 226.076C221.965 173.567 149.527 161.534 109.135 199.2C68.7438 236.866 75.6944 309.967 124.66 362.476C173.625 414.985 246.063 427.018 286.455 389.352ZM259.175 360.098C283.41 337.498 275.576 289.708 241.676 253.356C207.777 217.004 160.65 205.855 136.415 228.454C112.18 251.053 120.015 298.843 153.914 335.196C187.813 371.548 234.94 382.697 259.175 360.098Z" fill="#FFD43B"/>
<path fill-rule="evenodd" clip-rule="evenodd" d="M159.454 139.355C154.59 159.676 152 181.006 152 203C152 341.071 254.079 453 380 453L380 131.654L159.454 139.355ZM514.321 0.999999H514.36C514.347 0.98921 514.333 0.978422 514.32 0.967636L514.321 0.999999ZM608 203L608 202.773V203.226L608 203Z" fill="#FFD43B"/>
<path fill-rule="evenodd" clip-rule="evenodd" d="M246.858 164.559C243.033 185.494 241 207.436 241 230.044C241 293.144 256.841 351.053 283.249 396.37C227.483 360.765 190 294.507 190 218.649C190 200.569 192.129 183.035 196.128 166.331L246.858 164.559Z" fill="white"/>
<path d="M409.73 439.006H380V594.943H448.501H539.502L524.002 563.955H514.001L508.501 554.959L426 542.964L409.73 439.006Z" fill="#FAB005"/>
<path d="M437.001 423.012H380V484.987L437.001 475.567V423.012Z" fill="#F08C00"/>
<path fill-rule="evenodd" clip-rule="evenodd" d="M473.546 389.378C433.154 351.727 440.105 278.655 489.071 226.168C538.037 173.68 610.476 161.652 650.868 199.302C691.26 236.953 684.309 310.024 635.343 362.512C586.377 415 513.938 427.028 473.546 389.378ZM500.826 360.135C476.591 337.545 484.426 289.774 518.325 253.437C552.225 217.099 599.352 205.954 623.587 228.545C647.823 251.135 639.988 298.906 606.088 335.243C572.189 371.581 525.061 382.725 500.826 360.135Z" fill="#FCC419"/>
<path fill-rule="evenodd" clip-rule="evenodd" d="M600.548 139.482C605.412 159.794 608.002 181.116 608.002 203.101C608.002 341.116 505.922 453 380 453L380 131.784L600.548 139.482ZM245.678 1.18252H245.638C245.652 1.17172 245.665 1.16091 245.678 1.15012L245.678 1.18252ZM151.997 203.101L151.997 202.916V203.286L151.997 203.101Z" fill="#FCC419"/>
<path fill-rule="evenodd" clip-rule="evenodd" d="M476.752 396.393C532.518 360.802 570.002 294.571 570.002 218.744C570.002 200.671 567.873 183.144 563.874 166.447L513.143 164.676C516.968 185.602 519.002 207.535 519.002 230.134C519.002 293.209 503.16 351.094 476.752 396.393Z" fill="#FAB005"/>
</svg>
